<?xml version="1.0" encoding="UTF-8"?>
<svg width="30px" height="24px" viewBox="0 0 30 24" version="1.1" xmlns="http://www.w3.org/2000/svg" xmlns:xlink="http://www.w3.org/1999/xlink">
    <!-- Generator: Sketch 52.6 (67491) - http://www.bohemiancoding.com/sketch -->
    <title>合并形状</title>
    <desc>Created with Sketch.</desc>
    <g id="页面-1" stroke="none" stroke-width="1" fill="none" fill-rule="evenodd">
        <g id="02-1个人信息表预览" transform="translate(-1492.000000, -1729.000000)" fill="#FFFFFF">
            <g id="分组-13" transform="translate(991.000000, 1113.000000)">
                <g id="分组" transform="translate(258.000000, 603.000000)">
                    <path d="M251,19 L253,19 L253,31 L251,31 L251,19 Z M257,21 L259,21 L259,23 L257,23 L257,21 Z M257,27 L259,27 L259,29 L257,29 L257,27 Z M263,19 L265,19 L265,31 L263,31 L263,19 Z M247,16 C246.447715,16 246,16.4477153 246,17 L246,33 C246,33.5522847 246.447715,34 247,34 L269,34 C269.552285,34 270,33.5522847 270,33 L270,17 C270,16.4477153 269.552285,16 269,16 L247,16 Z M247,13 L269,13 C271.209139,13 273,14.790861 273,17 L273,33 C273,35.209139 271.209139,37 269,37 L247,37 C244.790861,37 243,35.209139 243,33 L243,17 C243,14.790861 244.790861,13 247,13 Z" id="合并形状"></path>
                </g>
            </g>
        </g>
    </g>
</svg>