<?xml version="1.0" encoding="UTF-8"?>
<svg width="28px" height="28px" viewBox="0 0 28 28" version="1.1" xmlns="http://www.w3.org/2000/svg" xmlns:xlink="http://www.w3.org/1999/xlink">
    <!-- Generator: Sketch 52.6 (67491) - http://www.bohemiancoding.com/sketch -->
    <title>搜索</title>
    <desc>Created with Sketch.</desc>
    <g id="页面-1" stroke="none" stroke-width="1" fill="none" fill-rule="evenodd">
        <g id="02-1个人信息表预览" transform="translate(-1377.000000, -1727.000000)">
            <g id="分组-13" transform="translate(991.000000, 1113.000000)">
                <g id="分组" transform="translate(258.000000, 603.000000)">
                    <g id="搜索" transform="translate(127.000000, 10.000000)">
                        <rect id="Rectangle-24" x="0" y="0" width="30" height="30"></rect>
                        <path d="M22.3594108,20.591653 L28.3838672,26.6161094 C28.8720312,27.1042734 28.8720312,27.8957188 28.3838672,28.3838828 C27.8957422,28.8720469 27.1042578,28.8720469 26.6161328,28.3838828 L20.5916573,22.3594073 C18.5518399,24.0107927 15.9539443,25 13.125,25 C6.56660156,25 1.25,19.6833984 1.25,13.125 C1.25,6.56660156 6.56660156,1.25 13.125,1.25 C19.6833984,1.25 25,6.56660156 25,13.125 C25,15.9539423 24.0107941,18.5518362 22.3594108,20.591653 Z M13.125,3.75 C11.8582812,3.75 10.6307813,3.9975 9.47660156,4.48570313 C8.36050781,4.95777344 7.35765625,5.6340625 6.49585937,6.49585937 C5.6340625,7.35765625 4.95777344,8.36050781 4.48570313,9.47660156 C3.9975,10.6307813 3.75,11.8582812 3.75,13.125 C3.75,14.3917187 3.9975,15.6192188 4.48570313,16.7733984 C4.95777344,17.8894922 5.6340625,18.8923438 6.49585937,19.7541406 C7.35765625,20.6159375 8.36050781,21.2922266 9.47660156,21.7642969 C10.6307813,22.2525 11.8582812,22.5 13.125,22.5 C14.3917187,22.5 15.6192187,22.2525 16.7733984,21.7642969 C17.8894922,21.2922266 18.8923438,20.6159375 19.7541406,19.7541406 C20.6159375,18.8923438 21.2922266,17.8894922 21.7642969,16.7733984 C22.2524609,15.6192188 22.5,14.3917187 22.5,13.125 C22.5,11.8582812 22.2524609,10.6307813 21.7642969,9.47660156 C21.2922266,8.36050781 20.6159375,7.35765625 19.7541406,6.49585937 C18.8923438,5.6340625 17.8894922,4.95777344 16.7733984,4.48570313 C15.6192187,3.9975 14.3917187,3.75 13.125,3.75 Z" id="Combined-Shape" fill="#FFFFFF"></path>
                        <path d="M14.4,14.4 L14.4,18.6 C14.4,19.3731937 13.7731938,20 13,20 C12.2268062,20 11.6,19.3731937 11.6,18.6 L11.6,14.4 L7.4,14.4 C6.62680625,14.4 6,13.7731938 6,13 C6,12.2268062 6.62680625,11.6 7.4,11.6 L11.6,11.6 L11.6,7.4 C11.6,6.62680625 12.2268062,6 13,6 C13.7731938,6 14.4,6.62680625 14.4,7.4 L14.4,11.6 L18.6,11.6 C19.3731937,11.6 20,12.2268062 20,13 C20,13.7731938 19.3731937,14.4 18.6,14.4 L14.4,14.4 Z" id="Combined-Shape" fill="#FFFFFF"></path>
                    </g>
                </g>
            </g>
        </g>
    </g>
</svg>