<?xml version="1.0" encoding="UTF-8"?>
<svg width="767px" height="701px" viewBox="0 0 767 701" version="1.1" xmlns="http://www.w3.org/2000/svg" xmlns:xlink="http://www.w3.org/1999/xlink">
    <!-- Generator: Sketch 52.6 (67491) - http://www.bohemiancoding.com/sketch -->
    <title>图片上传失败</title>
    <desc>Created with Sketch.</desc>
    <g id="页面-1" stroke="none" stroke-width="1" fill="none" fill-rule="evenodd">
        <g id="画板" transform="translate(-1169.000000, -139.000000)" fill="#CCCCCC">
            <path d="M1720.74543,776 L1866.13493,776 C1868.71336,776 1870.75766,775.288018 1872,774.320907 L1872,610.465001 L1737.65374,491.019206 L1734.79302,493.616819 L1823.95023,617.312043 L1717.87986,776 L1720.74543,776 Z M1720,840 L1598.12014,840 L1746.04977,618.687957 L1578.78115,386.622251 L1701.11713,139 L1728.16475,139 L1866.13493,139 C1904.72034,139 1936,167.653776 1936,203 L1936,776 C1936,811.346224 1904.72034,840 1866.13493,840 L1720,840 Z M1740.88287,203 L1653.21885,380.442176 L1697.13191,441.366419 L1737.20296,404.980794 L1872,524.82737 L1872,204.679093 C1870.75766,203.711982 1868.71336,203 1866.13493,203 L1740.88287,203 Z M1475.72995,776 L1484.89909,776 L1589.96474,618.815176 L1583.82602,610.413009 L1469.91255,713.849587 L1339.79013,611.82807 L1233,720.40896 L1233,774.290223 C1234.26613,775.274687 1236.35098,776 1238.97686,776 L1475.72995,776 Z M1475.72995,840 L1238.97686,840 C1200.32971,840 1169,811.346224 1169,776 L1169,203 C1169,167.653776 1200.32971,139 1238.97686,139 L1527,139 L1617.26199,139 L1494.45085,379.596833 L1668.03526,617.184824 L1519.10091,840 L1475.72995,840 Z M1512.73801,203 L1238.97686,203 C1236.35098,203 1234.26613,203.725313 1233,204.709777 L1233,629.137262 L1334.26719,526.17193 L1466.8856,630.150413 L1545.85614,558.442978 L1419.54915,385.564421 L1512.73801,203 Z M1351.5,403 C1319.74363,403 1294,377.256373 1294,345.5 C1294,313.743627 1319.74363,288 1351.5,288 C1383.25637,288 1409,313.743627 1409,345.5 C1409,377.256373 1383.25637,403 1351.5,403 Z" id="图片上传失败"></path>
        </g>
    </g>
</svg>