<?xml version="1.0" encoding="UTF-8"?>
<svg width="12px" height="16px" viewBox="0 0 12 16" version="1.1" xmlns="http://www.w3.org/2000/svg" xmlns:xlink="http://www.w3.org/1999/xlink">
    <!-- Generator: Sketch 52.6 (67491) - http://www.bohemiancoding.com/sketch -->
    <title>other</title>
    <desc>Created with Sketch.</desc>
    <g id="Data-Entry-数据输入--2" stroke="none" stroke-width="1" fill="none" fill-rule="evenodd">
        <g id="upload-上传" transform="translate(-438.000000, -1673.000000)">
            <g id="other" transform="translate(437.000000, 1673.000000)">
                <g transform="translate(1.000000, 0.000000)">
                    <path d="M1.33333333,0 L8,0 L12,5.09090909 L12,14.5454545 C12,15.3490909 11.4033333,16 10.6666667,16 L1.33333333,16 C0.596666667,16 0,15.3490909 0,14.5454545 L0,1.45454545 C0,0.650909091 0.596666667,0 1.33333333,0" id="Fill-1" fill="#BC71DF"></path>
                    <path d="M12,5.09090909 L9.33333333,5.09090909 C8.59666667,5.09090909 8,4.44 8,3.63636364 L8,0 L8.66666667,0 L12,4.36363636 L12,5.09090909 Z" id="Fill-3" fill="#DDA6F7"></path>
                    <path d="M4.782,13.2617 L6.22275,13.2617 L6.22275,11.88545 L4.782,11.88545 L4.782,13.2617 Z M6.79125,9.60545 C7.7775,8.87195 8.2575,8.07245 8.23275,7.20695 C8.106,5.8187 7.335,5.08445 5.91975,5.0057 C4.30125,4.92695 3.3285,5.6612 3,7.20695 L4.2135,7.56095 C4.365,6.59195 4.896,6.1202 5.80575,6.1457 C6.48825,6.19895 6.86775,6.5387 6.9435,7.16795 C7.01925,7.71845 6.70275,8.2427 5.9955,8.7407 C5.262,9.2912 4.908,9.95945 4.9335,10.74545 L4.9335,11.0597 L6.07125,11.0597 L6.07125,10.7852 C6.04575,10.3397 6.28575,9.9467 6.79125,9.60545 Z" id="Fill-1" fill="#FEFEFE"></path>
                </g>
            </g>
        </g>
    </g>
</svg>