<?xml version="1.0" encoding="UTF-8"?>
<svg width="12px" height="16px" viewBox="0 0 12 16" version="1.1" xmlns="http://www.w3.org/2000/svg" xmlns:xlink="http://www.w3.org/1999/xlink">
    <!-- Generator: Sketch 52.6 (67491) - http://www.bohemiancoding.com/sketch -->
    <title>W</title>
    <desc>Created with Sketch.</desc>
    <g id="Data-Entry-数据输入--2" stroke="none" stroke-width="1" fill="none" fill-rule="evenodd">
        <g id="upload-上传" transform="translate(-153.000000, -1673.000000)">
            <g id="W" transform="translate(152.000000, 1673.000000)">
                <g transform="translate(1.000000, 0.000000)">
                    <path d="M1.33333333,0 L8,0 L12,5.09090909 L12,14.5454545 C12,15.3490909 11.4033333,16 10.6666667,16 L1.33333333,16 C0.596666667,16 0,15.3490909 0,14.5454545 L0,1.45454545 C0,0.650909091 0.596666667,0 1.33333333,0" id="Fill-1" fill="#3999F7"></path>
                    <path d="M12,5.09090909 L9.33333333,5.09090909 C8.59666667,5.09090909 8,4.44 8,3.63636364 L8,0 L8.66666667,0 L12,4.36363636 L12,5.09090909 Z" id="Fill-3" fill="#86BFF7"></path>
                    <polygon id="W-Copy-12" fill="#FEFEFE" points="9.69904561 6 8.17560811 12.2045455 7.29539977 12.2045455 6.07664977 7.25568182 4.82404561 12.2045455 3.94383727 12.2045455 2.42039977 6 3.23289977 6 4.38394144 10.6164773 5.53498311 6 6.58446227 6 7.73550394 10.6164773 8.88654561 6"></polygon>
                </g>
            </g>
        </g>
    </g>
</svg>