<?xml version="1.0" encoding="UTF-8"?>
<svg width="24px" height="24px" viewBox="0 0 24 24" version="1.1" xmlns="http://www.w3.org/2000/svg" xmlns:xlink="http://www.w3.org/1999/xlink">
    <!-- Generator: Sketch 52.6 (67491) - http://www.bohemiancoding.com/sketch -->
    <title>适应屏幕</title>
    <desc>Created with Sketch.</desc>
    <g id="页面-1" stroke="none" stroke-width="1" fill="none" fill-rule="evenodd">
        <g id="02-1个人信息表预览" transform="translate(-1556.000000, -1729.000000)" fill="#FFFFFF">
            <path d="M1566.47813,1744.522 L1561.92555,1749.0835 L1565.83696,1753 L1556.03071,1752.9775 L1556.00824,1743.1585 L1559.91516,1747.0705 L1564.46774,1742.5 L1566.47813,1744.522 Z M1575.80545,1735.18 L1571.49256,1739.485 L1569.49266,1737.4885 L1573.80555,1733.185 L1569.60651,1729 L1579.97903,1729.021 L1580,1739.362 L1575.80545,1735.18 Z M1564.46699,1739.49175 L1559.91142,1734.93325 L1556,1738.84975 L1556.02247,1729.03075 L1565.82872,1729.00825 L1561.9218,1732.92025 L1566.48637,1737.47875 L1564.46699,1739.49175 Z M1573.81005,1748.803 L1569.51064,1744.4845 L1571.50454,1742.482 L1575.80246,1746.8005 L1579.98202,1742.596 L1579.96105,1752.982 L1569.63348,1753.003 L1573.81005,1748.803 Z" id="适应屏幕"></path>
        </g>
    </g>
</svg>