<?xml version="1.0" encoding="UTF-8"?>
<svg width="12px" height="16px" viewBox="0 0 12 16" version="1.1" xmlns="http://www.w3.org/2000/svg" xmlns:xlink="http://www.w3.org/1999/xlink">
    <!-- Generator: Sketch 52.6 (67491) - http://www.bohemiancoding.com/sketch -->
    <title>pdf</title>
    <desc>Created with Sketch.</desc>
    <g id="Data-Entry-数据输入--2" stroke="none" stroke-width="1" fill="none" fill-rule="evenodd">
        <g id="upload-上传" transform="translate(-268.000000, -1673.000000)">
            <g id="pdf" transform="translate(267.000000, 1673.000000)">
                <g transform="translate(1.000000, 0.000000)">
                    <path d="M1.33333333,0 L8,0 L12,5.09090909 L12,14.5454545 C12,15.3490909 11.4033333,16 10.6666667,16 L1.33333333,16 C0.596666667,16 0,15.3490909 0,14.5454545 L0,1.45454545 C0,0.650909091 0.596666667,0 1.33333333,0" id="Fill-1" fill="#EA7B7B"></path>
                    <path d="M12,5.09090909 L9.33333333,5.09090909 C8.59666667,5.09090909 8,4.44 8,3.63636364 L8,0 L8.66666667,0 L12,4.36363636 L12,5.09090909 Z" id="Fill-3" fill="#FFA5A5"></path>
                    <path d="M8.5198926,13.2811284 C7.72335796,13.2811284 7.01532717,11.8961268 6.63602496,10.9984405 C6.00385461,10.7291346 5.30846722,10.4854769 4.63836665,10.3187638 C4.04412652,10.7163105 3.04529736,11.3062186 2.27404954,11.3062186 C1.79360007,11.3062186 1.45222808,11.0625609 1.32579401,10.639366 C1.22464675,10.2931156 1.3131506,10.0494579 1.41429786,9.921217 C1.61659237,9.63908703 2.0338248,9.49802205 2.66599515,9.49802205 C3.17173143,9.49802205 3.81654519,9.58779067 4.53721939,9.76732792 C5.00502545,9.4339016 5.47283151,9.04917892 5.89006394,8.63880806 C5.70041284,7.74112181 5.49811833,6.29199971 6.01649801,5.62514707 C6.26936615,5.30454484 6.66131177,5.20195212 7.12911783,5.3430171 C7.64749752,5.49690618 7.83714863,5.81750841 7.90036566,6.06116611 C8.11530358,6.93320418 7.12911783,8.1130204 6.45901726,8.80552122 C6.61073814,9.40825342 6.80038925,10.0366338 7.04061398,10.6137178 C8.00151292,11.0497369 9.13941955,11.6909413 9.26585362,12.3962662 C9.31642725,12.6399239 9.2405668,12.8707575 9.0509157,13.0631189 C8.88655141,13.2041839 8.70954371,13.2811284 8.5198926,13.2811284 Z M8.47077516,12.7477951 C8.51345194,12.7477951 8.57035431,12.7336358 8.65570786,12.6628393 C8.75528701,12.5637243 8.75528701,12.4929278 8.74106142,12.4362906 C8.68415905,12.1531048 8.22894009,11.6858482 7.14779507,11.1477951 C7.68836758,12.2380606 8.20048891,12.7477951 8.47077516,12.7477951 Z M1.84873212,10.227365 C1.8362377,10.2445693 1.78626001,10.28758 1.8362377,10.4080101 C1.87372097,10.5112359 1.97367635,10.6144617 2.29853133,10.6144617 C2.69835284,10.6144617 3.27309627,10.459623 3.94779507,10.1843542 C3.4605126,10.115537 3.03570224,10.0811284 2.68585842,10.0811284 C2.07363172,10.0811284 1.89870981,10.1843542 1.84873212,10.227365 Z M5.01446174,9.69324961 C5.37001729,9.80234052 5.73668396,9.93567386 6.0811284,10.0811284 C5.95890618,9.72961325 5.85890618,9.36597689 5.77001729,9.01446174 C5.52557285,9.24476477 5.27001729,9.4750678 5.01446174,9.69324961 Z M6.27294316,5.9846745 C6.04381892,6.35346883 6.02199757,7.28963904 6.19656842,8.4811284 C6.86211978,7.55914259 7.22217215,6.70807876 7.13488673,6.25417805 C7.12397605,6.18325606 7.08033334,5.9846745 6.77483435,5.87119932 C6.68754893,5.82864613 6.62208486,5.81446174 6.55662079,5.81446174 C6.43660333,5.81446174 6.34931791,5.87119932 6.27294316,5.9846745 Z" id="Shape-Copy-6" stroke="#FFFFFF" stroke-width="0.4" fill="#FFFFFF" fill-rule="nonzero" transform="translate(5.281128, 9.281128) rotate(-24.000000) translate(-5.281128, -9.281128) "></path>
                </g>
            </g>
        </g>
    </g>
</svg>