<?xml version="1.0" encoding="UTF-8"?>
<svg width="28px" height="28px" viewBox="0 0 28 28" version="1.1" xmlns="http://www.w3.org/2000/svg" xmlns:xlink="http://www.w3.org/1999/xlink">
    <!-- Generator: Sketch 52.6 (67491) - http://www.bohemiancoding.com/sketch -->
    <title>收起</title>
    <desc>Created with Sketch.</desc>
    <g id="页面-1" stroke="none" stroke-width="1" fill="none" fill-rule="evenodd">
        <g id="02-1个人信息表预览" transform="translate(-1310.000000, -1727.000000)" fill="#FFFFFF">
            <g id="分组-13" transform="translate(991.000000, 1113.000000)">
                <path d="M332.749695,628.999962 L332.749695,629.000001 L332.749695,637.750007 C332.749695,638.440359 332.190047,639.000008 331.499695,639.000008 C330.809343,639.000008 330.249694,638.440359 330.249694,637.750007 L330.249694,632.017776 L321.133868,641.133877 C320.645743,641.622041 319.854258,641.622041 319.366094,641.133877 C318.877969,640.645751 318.877969,639.854266 319.366094,639.366141 L328.481919,630.250002 L322.74969,630.250002 C322.059338,630.250002 321.499689,629.690353 321.499689,629.000001 C321.499689,628.309649 322.059338,627.75 322.74969,627.75 L331.499695,627.75 L331.499734,627.75 C331.52032,627.75 331.540906,627.750547 331.561492,627.751563 C331.571296,627.752031 331.580984,627.752969 331.59071,627.753672 C331.601296,627.754414 331.611843,627.755039 331.62239,627.756055 C331.634617,627.757266 331.646687,627.758906 331.658796,627.76043 C331.666726,627.761445 331.674695,627.762266 331.682624,627.763477 C331.695828,627.765391 331.708835,627.767734 331.721882,627.770078 C331.728718,627.771328 331.735632,627.772422 331.742468,627.77375 C331.755788,627.776367 331.768914,627.779375 331.782039,627.782422 C331.788679,627.783945 331.795359,627.785391 331.801999,627.787031 C331.814734,627.790195 331.82739,627.793711 331.839968,627.797266 C331.847117,627.799297 331.854226,627.801211 331.861296,627.80332 C331.873015,627.806875 331.884617,627.810703 331.896179,627.81457 C331.904148,627.817266 331.912156,627.819844 331.920125,627.822656 C331.930515,627.826406 331.940789,627.830391 331.951062,627.834375 C331.960085,627.837852 331.969148,627.841289 331.978093,627.845039 C331.987078,627.84875 331.995945,627.852695 332.004812,627.856602 C332.014851,627.861055 332.024929,627.865508 332.03489,627.870234 C332.042507,627.873828 332.050007,627.877656 332.057546,627.881406 C332.068484,627.886875 332.079382,627.892344 332.090203,627.898125 C332.096687,627.901641 332.103054,627.905313 332.1095,627.908906 C332.120945,627.915313 332.132351,627.921719 332.143601,627.928516 C332.149461,627.93207 332.155203,627.935742 332.160984,627.939375 C332.172429,627.946524 332.183875,627.953711 332.195125,627.961289 C332.200906,627.965156 332.20657,627.969219 332.212273,627.973203 C332.223133,627.980781 332.233992,627.98832 332.244695,627.99625 C332.25114,628.001055 332.257351,628.006094 332.263718,628.011016 C332.273367,628.018477 332.283054,628.02586 332.292547,628.033672 C332.300789,628.040469 332.308758,628.047539 332.316844,628.054531 C332.324148,628.06086 332.331531,628.066953 332.338719,628.073477 C332.369304,628.101172 332.398523,628.130391 332.426219,628.160977 C332.432742,628.168164 332.438836,628.175547 332.445164,628.182852 C332.452156,628.190938 332.459226,628.198907 332.466023,628.207149 C332.473836,628.216641 332.481219,628.226328 332.48868,628.235977 C332.493601,628.242305 332.49864,628.248555 332.503445,628.255 C332.511375,628.265703 332.518914,628.276563 332.526492,628.287422 C332.530476,628.293125 332.534539,628.298789 332.538406,628.304571 C332.545984,628.315821 332.553172,628.327266 332.56032,628.338711 C332.563953,628.344493 332.567625,628.350235 332.57118,628.356094 C332.577976,628.367344 332.584383,628.37875 332.590789,628.390196 C332.594383,628.396641 332.598055,628.403008 332.60157,628.409493 C332.607351,628.420313 332.61282,628.431211 332.618289,628.442149 C332.622039,628.449688 332.625867,628.457149 332.629461,628.464805 C332.634187,628.474766 332.638641,628.484805 332.643094,628.494883 C332.647,628.503751 332.650945,628.512618 332.654656,628.521602 C332.658406,628.530547 332.661844,628.53961 332.66532,628.548633 C332.669305,628.558907 332.673289,628.56918 332.677039,628.579571 C332.679852,628.58754 332.68243,628.595508 332.685125,628.603516 C332.688992,628.615079 332.69282,628.62668 332.696375,628.638399 C332.698484,628.645469 332.700398,628.652579 332.70243,628.659727 C332.705984,628.672305 332.7095,628.684962 332.712664,628.697696 C332.714305,628.704337 332.71575,628.711016 332.717273,628.717657 C332.72032,628.730782 332.723328,628.743907 332.725945,628.757227 C332.727273,628.764063 332.728367,628.770977 332.729617,628.777813 C332.731961,628.79086 332.734305,628.803868 332.736219,628.817071 C332.73743,628.825001 332.73825,628.83297 332.739266,628.840899 C332.740789,628.853009 332.74243,628.865079 332.743641,628.877305 C332.744656,628.887852 332.745281,628.898399 332.746023,628.908985 C332.746727,628.918712 332.747664,628.928399 332.748133,628.938204 C332.749148,628.95879 332.749695,628.979376 332.749695,628.999962 Z M332.750305,626.500038 L332.750305,626.499999 L332.750305,617.749993 C332.750305,617.059641 333.309953,616.499992 334.000305,616.499992 C334.690657,616.499992 335.250306,617.059641 335.250306,617.749993 L335.250306,623.482224 L344.366132,614.366123 C344.854257,613.877959 345.645742,613.877959 346.133906,614.366123 C346.622031,614.854249 346.622031,615.645734 346.133906,616.133859 L337.018081,625.249998 L342.75031,625.249998 C343.440662,625.249998 344.000311,625.809647 344.000311,626.499999 C344.000311,627.190351 343.440662,627.75 342.75031,627.75 L334.000305,627.75 L334.000266,627.75 C333.97968,627.75 333.959094,627.749453 333.938508,627.748437 C333.928704,627.747969 333.919016,627.747031 333.90929,627.746328 C333.898704,627.745586 333.888157,627.744961 333.87761,627.743945 C333.865383,627.742734 333.853313,627.741094 333.841204,627.73957 C333.833274,627.738555 333.825305,627.737734 333.817376,627.736523 C333.804172,627.734609 333.791165,627.732266 333.778118,627.729922 C333.771282,627.728672 333.764368,627.727578 333.757532,627.72625 C333.744212,627.723633 333.731086,627.720625 333.717961,627.717578 C333.711321,627.716055 333.704641,627.714609 333.698001,627.712969 C333.685266,627.709805 333.67261,627.706289 333.660032,627.702734 C333.652883,627.700703 333.645774,627.698789 333.638704,627.69668 C333.626985,627.693125 333.615383,627.689297 333.603821,627.68543 C333.595852,627.682734 333.587844,627.680156 333.579875,627.677344 C333.569485,627.673594 333.559211,627.669609 333.548938,627.665625 C333.539915,627.662148 333.530852,627.658711 333.521907,627.654961 C333.512922,627.65125 333.504055,627.647305 333.495188,627.643398 C333.485149,627.638945 333.475071,627.634492 333.46511,627.629766 C333.457493,627.626172 333.449993,627.622344 333.442454,627.618594 C333.431516,627.613125 333.420618,627.607656 333.409797,627.601875 C333.403313,627.598359 333.396946,627.594687 333.3905,627.591094 C333.379055,627.584687 333.367649,627.578281 333.356399,627.571484 C333.350539,627.56793 333.344797,627.564258 333.339016,627.560625 C333.327571,627.553476 333.316125,627.546289 333.304875,627.538711 C333.299094,627.534844 333.29343,627.530781 333.287727,627.526797 C333.276867,627.519219 333.266008,627.51168 333.255305,627.50375 C333.24886,627.498945 333.242649,627.493906 333.236282,627.488984 C333.226633,627.481523 333.216946,627.47414 333.207453,627.466328 C333.199211,627.459531 333.191242,627.452461 333.183156,627.445469 C333.175852,627.43914 333.168469,627.433047 333.161281,627.426523 C333.130696,627.398828 333.101477,627.369609 333.073781,627.339023 C333.067258,627.331836 333.061164,627.324453 333.054836,627.317148 C333.047844,627.309062 333.040774,627.301093 333.033977,627.292851 C333.026164,627.283359 333.018781,627.273672 333.01132,627.264023 C333.006399,627.257695 333.00136,627.251445 332.996555,627.245 C332.988625,627.234297 332.981086,627.223437 332.973508,627.212578 C332.969524,627.206875 332.965461,627.201211 332.961594,627.195429 C332.954016,627.184179 332.946828,627.172734 332.93968,627.161289 C332.936047,627.155507 332.932375,627.149765 332.92882,627.143906 C332.922024,627.132656 332.915617,627.12125 332.909211,627.109804 C332.905617,627.103359 332.901945,627.096992 332.89843,627.090507 C332.892649,627.079687 332.88718,627.068789 332.881711,627.057851 C332.877961,627.050312 332.874133,627.042851 332.870539,627.035195 C332.865813,627.025234 332.861359,627.015195 332.856906,627.005117 C332.853,626.996249 332.849055,626.987382 332.845344,626.978398 C332.841594,626.969453 332.838156,626.96039 332.83468,626.951367 C332.830695,626.941093 332.826711,626.93082 332.822961,626.920429 C332.820148,626.91246 332.81757,626.904492 332.814875,626.896484 C332.811008,626.884921 332.80718,626.87332 332.803625,626.861601 C332.801516,626.854531 332.799602,626.847421 332.79757,626.840273 C332.794016,626.827695 332.7905,626.815038 332.787336,626.802304 C332.785695,626.795663 332.78425,626.788984 332.782727,626.782343 C332.77968,626.769218 332.776672,626.756093 332.774055,626.742773 C332.772727,626.735937 332.771633,626.729023 332.770383,626.722187 C332.768039,626.70914 332.765695,626.696132 332.763781,626.682929 C332.76257,626.674999 332.76175,626.66703 332.760734,626.659101 C332.759211,626.646991 332.75757,626.634921 332.756359,626.622695 C332.755344,626.612148 332.754719,626.601601 332.753977,626.591015 C332.753273,626.581288 332.752336,626.571601 332.751867,626.561796 C332.750852,626.54121 332.750305,626.520624 332.750305,626.500038 Z" id="收起"></path>
            </g>
        </g>
    </g>
</svg>