<?xml version="1.0" encoding="UTF-8"?>
<svg width="12px" height="16px" viewBox="0 0 12 16" version="1.1" xmlns="http://www.w3.org/2000/svg" xmlns:xlink="http://www.w3.org/1999/xlink">
    <!-- Generator: Sketch 52.6 (67491) - http://www.bohemiancoding.com/sketch -->
    <title>html</title>
    <desc>Created with Sketch.</desc>
    <g id="Data-Entry-数据输入--2" stroke="none" stroke-width="1" fill="none" fill-rule="evenodd">
        <g id="upload-上传" transform="translate(-384.000000, -1673.000000)">
            <g id="html" transform="translate(383.000000, 1673.000000)">
                <g transform="translate(1.000000, 0.000000)">
                    <path d="M1.33333333,0 L8,0 L12,5.09090909 L12,14.5454545 C12,15.3490909 11.4033333,16 10.6666667,16 L1.33333333,16 C0.596666667,16 0,15.3490909 0,14.5454545 L0,1.45454545 C0,0.650909091 0.596666667,0 1.33333333,0" id="Fill-1" fill="#F06535"></path>
                    <path d="M12,5.09090909 L9.33333333,5.09090909 C8.59666667,5.09090909 8,4.44 8,3.63636364 L8,0 L8.66666667,0 L12,4.36363636 L12,5.09090909 Z" id="Fill-3" fill="#FF8E67"></path>
                    <path d="M4.2353,7.84959 C4.3253,7.28559 4.5453,6.82959 4.8963,6.47959 C5.2463,6.12859 5.6613,5.95359 6.1403,5.95359 C6.6603,5.95359 7.0643,6.11859 7.3513,6.44859 C7.6383,6.77859 7.7833,7.24559 7.7873,7.84959 L4.2353,7.84959 Z M8.9923,8.19959 C8.9923,7.18959 8.7423,6.40359 8.2423,5.84259 C7.7423,5.28059 7.0483,4.99959 6.1593,4.99959 C5.2613,4.99959 4.5103,5.33159 3.9063,5.99659 C3.3023,6.66059 3.0003,7.50359 3.0003,8.52559 C3.0003,9.61259 3.2753,10.46159 3.8263,11.07359 C4.3773,11.68559 5.1453,11.99059 6.1283,11.99059 C7.1153,11.99059 7.9083,11.78359 8.5063,11.36959 L8.5063,10.31259 C7.8713,10.79159 7.1733,11.03159 6.4113,11.03159 C5.7353,11.03159 5.2083,10.83659 4.8313,10.44859 C4.4543,10.06059 4.2553,9.50959 4.2353,8.79759 L8.9923,8.79759 L8.9923,8.19959 Z" id="Fill-1" fill="#FEFEFE"></path>
                </g>
            </g>
        </g>
    </g>
</svg>