<?xml version="1.0" encoding="UTF-8"?>
<svg width="13px" height="16px" viewBox="0 0 13 16" version="1.1" xmlns="http://www.w3.org/2000/svg" xmlns:xlink="http://www.w3.org/1999/xlink">
    <!-- Generator: Sketch 52.6 (67491) - http://www.bohemiancoding.com/sketch -->
    <title>msg</title>
    <desc>Created with Sketch.</desc>
    <g id="Data-Entry-数据输入--2" stroke="none" stroke-width="1" fill="none" fill-rule="evenodd">
        <g id="upload-上传" transform="translate(-323.000000, -1673.000000)">
            <g id="msg" transform="translate(323.000000, 1673.000000)">
                <g transform="translate(0.888889, 0.000000)">
                    <path d="M1.33333333,0 L8,0 L12,5.09090909 L12,14.5454545 C12,15.3490909 11.4033333,16 10.6666667,16 L1.33333333,16 C0.596666667,16 0,15.3490909 0,14.5454545 L0,1.45454545 C0,0.650909091 0.596666667,0 1.33333333,0" id="Fill-1" fill="#0078D7"></path>
                    <path d="M12,5.09090909 L9.33333333,5.09090909 C8.59666667,5.09090909 8,4.44 8,3.63636364 L8,0 L8.66666667,0 L12,4.36363636 L12,5.09090909 Z" id="Fill-3" fill="#4BA4EA"></path>
                    <path d="M3.54573922,7.70589791 C3.85814912,7.70589791 4.11139822,8.12064766 4.11139822,8.63234759 C4.11139822,9.14398139 3.85814912,9.55879727 3.54573922,9.55879727 C3.23325633,9.55879727 2.98000723,9.14398139 2.98000723,8.63234759 C2.98000723,8.12064766 3.23325633,7.70589791 3.54573922,7.70589791 Z M3.54573922,10.3529159 C4.32680046,10.3529159 4.95997796,9.58263802 4.95997796,8.63234759 C4.95997796,7.68209023 4.32680046,6.91171316 3.54573922,6.91171316 C2.76460498,6.91171316 2.13142749,7.68209023 2.13142749,8.63234759 C2.13142749,9.58263802 2.76460498,10.3529159 3.54573922,10.3529159 Z M1,5.0588138 L6.37428969,4 L6.37428969,13 L1,12.2059144 L1,5.0588138 Z M8.34046475,8.49647845 L7.15845313,7.49572895 L7.15845313,6.24476727 L10.704488,6.24476727 L10.704488,6.49497944 L8.63597677,8.49647845 L8.34046475,8.49647845 Z M7.15845313,11.4986939 L7.15381808,8.50001653 L8.04498922,9.24698271 L8.63597677,9.24698271 L11,6.99533766 L11,11.4986939 L7.15845313,11.4986939 Z" id="Fill-1" fill="#FEFEFE"></path>
                </g>
            </g>
        </g>
    </g>
</svg>