<?xml version="1.0" encoding="UTF-8"?>
<svg width="40px" height="37px" viewBox="0 0 40 37" version="1.1" xmlns="http://www.w3.org/2000/svg" xmlns:xlink="http://www.w3.org/1999/xlink">
    <!-- Generator: Sketch 52.6 (67491) - http://www.bohemiancoding.com/sketch -->
    <title>分组 15</title>
    <desc>Created with Sketch.</desc>
    <g id="页面-1" stroke="none" stroke-width="1" fill="none" fill-rule="evenodd">
        <g id="04-1员工信息审核" transform="translate(-188.000000, -1747.000000)">
            <g id="分组-13" transform="translate(102.000000, 1062.000000)">
                <g id="分组-15" transform="translate(78.000000, 682.000000)">
                    <rect id="矩形" x="2" y="3" width="48" height="43"></rect>
                    <path d="M37.7661847,39.9995794 C38.3012938,39.9995794 38.8296141,39.7794898 39.3109273,39.3709665 C39.892196,38.7813911 40.1013502,38.135738 39.9522083,37.4153593 C39.5772237,35.3234708 36.2514813,32.9266741 31.0660393,30.5737196 L30.7073983,30.4109821 L30.5560448,30.0473904 C29.5960903,27.7413233 28.7700363,25.1315989 28.0377161,22.2223558 L27.9018836,21.6827422 L28.2888304,21.2828604 C32.3962591,17.0381279 34.801925,13.1493071 34.1652432,10.565875 C33.8940682,9.52068387 33.1165042,8.68012148 31.5666865,8.22002436 C29.9620631,7.73615681 28.7226252,8.05308545 27.9162725,9.07539021 C26.3379707,11.1057451 26.4144276,15.6036137 27.5678164,21.063014 L27.6809936,21.5987219 L27.290633,21.9826628 C25.5357894,23.7086472 23.5235985,25.3810894 21.4202305,26.8802539 L21.0450951,27.1476297 L20.598088,27.0362695 C17.6541456,26.3028628 14.9810743,25.9213774 12.8871205,25.9213774 C10.4899549,25.9213774 9.01228357,26.4209735 8.35257423,27.3392397 C8.00431045,27.7807906 7.86789336,28.5220401 8.1494181,29.4858308 C8.55928391,30.8577168 9.61943788,31.6062129 11.2213516,31.6062129 C13.6844494,31.6062129 17.0582043,30.0238744 20.7136571,27.5783757 L21.0815697,27.3322421 L21.5111281,27.4391111 C24.2946154,28.1316101 27.2842717,29.1566401 30.1516685,30.3781571 L30.5235611,30.5365841 L30.6808941,30.9089407 C32.9709648,36.328801 35.5650461,39.9995794 37.7661847,39.9995794 Z M41.9156503,37.0356866 C42.199765,38.4045172 41.7727638,39.7226576 40.6743066,40.8318818 C39.7885044,41.5921179 38.810402,41.9995794 37.7661847,41.9995794 C34.416099,41.9995794 31.5988978,38.1083693 28.9983761,32.0621835 C26.4849622,31.0106848 23.888718,30.119594 21.4530183,29.4878778 C17.6221187,32.0060964 14.1196574,33.6062129 11.2213516,33.6062129 C8.75533823,33.6062129 6.90218557,32.2978393 6.23138314,30.0524917 C5.76872864,28.4687185 6.02871311,27.0560409 6.75472816,26.1372441 C7.8420338,24.6208337 9.91083814,23.9213774 12.8871205,23.9213774 C15.0479241,23.9213774 17.7141709,24.2867997 20.6296309,24.9851583 C22.3615553,23.7265869 24.0200339,22.3504661 25.4990711,20.9343523 C24.3282116,15.1277062 24.3110321,10.4544813 26.3415905,7.84237492 C27.6902244,6.13249144 29.790451,5.5954561 32.1399819,6.30395705 C34.3740508,6.96717515 35.657845,8.35498269 36.104137,10.0754241 C36.9561409,13.5321424 34.4822164,17.6685552 30.113876,22.2691339 C30.7501797,24.7235766 31.4561162,26.9427249 32.2544748,28.9179978 C37.8737239,31.5079956 41.3888282,34.0946926 41.9156503,37.0356866 Z" id="Shape-Copy-6" stroke="#F24B60" stroke-width="2" fill="#F24B60" fill-rule="nonzero" transform="translate(24.000552, 23.999790) rotate(-24.000000) translate(-24.000552, -23.999790) "></path>
                </g>
            </g>
        </g>
    </g>
</svg>