<?xml version="1.0" encoding="UTF-8"?>
<svg width="12px" height="16px" viewBox="0 0 12 16" version="1.1" xmlns="http://www.w3.org/2000/svg" xmlns:xlink="http://www.w3.org/1999/xlink">
    <!-- Generator: Sketch 52.6 (67491) - http://www.bohemiancoding.com/sketch -->
    <title>ppt</title>
    <desc>Created with Sketch.</desc>
    <g id="Data-Entry-数据输入--2" stroke="none" stroke-width="1" fill="none" fill-rule="evenodd">
        <g id="upload-上传" transform="translate(-496.000000, -1673.000000)">
            <g id="ppt" transform="translate(495.000000, 1673.000000)">
                <g transform="translate(1.000000, 0.000000)">
                    <path d="M1.33333333,0 L8,0 L12,5.09090909 L12,14.5454545 C12,15.3490909 11.4033333,16 10.6666667,16 L1.33333333,16 C0.596666667,16 0,15.3490909 0,14.5454545 L0,1.45454545 C0,0.650909091 0.596666667,0 1.33333333,0" id="Fill-1" fill="#FF9717"></path>
                    <path d="M12,5.09090909 L9.33333333,5.09090909 C8.59666667,5.09090909 8,4.44 8,3.63636364 L8,0 L8.66666667,0 L12,4.36363636 L12,5.09090909 Z" id="Fill-3" fill="#FFC47B"></path>
                    <path d="M8.625,7.20833333 C8.625,7.986115 8.3194475,8.58333125 7.70833333,9 C7.26388667,9.27777917 6.77778042,9.41666667 6.25,9.41666667 L3.95833333,9.41666667 L3.95833333,12 L3,12 L3,5 L6.25,5 C6.77778042,5 7.26388667,5.1388875 7.70833333,5.41666667 C8.3194475,5.83333542 8.625,6.43055167 8.625,7.20833333 Z M7.66666667,7.20833333 C7.66666667,6.79166458 7.50000167,6.47222333 7.16666667,6.25 C6.91666542,6.0833325 6.61111292,6 6.25,6 L3.95833333,6 L3.95833333,8.41666667 L6.25,8.41666667 C6.61111292,8.41666667 6.91666542,8.33333417 7.16666667,8.16666667 C7.50000167,7.94444333 7.66666667,7.62500208 7.66666667,7.20833333 Z" id="P" fill="#FEFEFE"></path>
                </g>
            </g>
        </g>
    </g>
</svg>