<?xml version="1.0" encoding="UTF-8"?>
<svg width="768px" height="768px" viewBox="0 0 768 768" version="1.1" xmlns="http://www.w3.org/2000/svg" xmlns:xlink="http://www.w3.org/1999/xlink">
    <!-- Generator: Sketch 52.6 (67491) - http://www.bohemiancoding.com/sketch -->
    <title>上传图片</title>
    <desc>Created with Sketch.</desc>
    <g id="页面-1" stroke="none" stroke-width="1" fill="none" fill-rule="evenodd">
        <g id="画板" transform="translate(-160.000000, -106.000000)" fill="#CCCCCC" fill-rule="nonzero">
            <path d="M768,665.032703 L639.228615,547.528814 L449.536315,724.31012 L322.800898,622.327714 L224,725.43058 L224,810 L768,810 L768,665.032703 Z M768,578.392297 L768,395.188302 L832,395.188302 L832,812.647646 C832,846.531616 804.609762,874 770.822191,874 L221.177809,874 C187.390238,874 160,846.531616 160,812.647646 L160,263.352354 C160,229.468384 187.390238,202 221.177809,202 L639.480797,202 L639.480797,266 L224,266 L224,632.929445 L317.199102,535.672286 L446.463685,639.68988 L638.771385,460.471186 L768,578.392297 Z M768,202 L768,106 L832,106 L832,202 L928,202 L928,266 L832,266 L832,362 L768,362 L768,266 L672,266 L672,202 L768,202 Z M375,472 C344.624339,472 320,447.375661 320,417 C320,386.624339 344.624339,362 375,362 C405.375661,362 430,386.624339 430,417 C430,447.375661 405.375661,472 375,472 Z" id="上传图片"></path>
        </g>
    </g>
</svg>