<svg xmlns="http://www.w3.org/2000/svg" viewBox="0 0 57.67 78.4"><defs><style>.cls-1{fill:#fafafc;}.cls-2{fill:#3c3c77;}.cls-3{fill:#eeeff5;}.cls-4{fill:#38f;}.cls-5{fill:#282850;fill-rule:evenodd;}</style></defs><title>资源 8</title><g id="图层_2" data-name="图层 2"><g id="图层_1-2" data-name="图层 1"><path class="cls-1" d="M38.34,43.08a111.39,111.39,0,0,1-11.72-.75C12.9,40.78,8.38,38.79,5.52,36.87S-.7,30.24.51,19.39C1.73,8.35,4.45,3.62,10.89,1.3c1.94-.7,5-1,9.17-1,4.34,0,8.8.39,11.07.62C35.66,1.41,46.48,3,50.87,5.74c5.77,3.67,7.39,8.89,6.16,19.92-1.2,10.85-5.41,14.67-8.73,16-1.95.76-4.51,1.46-10,1.46Z"/><path class="cls-2" d="M20.06.5c4.32,0,8.75.39,11,.62h.09c4.14.5,15.15,2,19.54,4.82,5.46,3.47,7.31,8.41,6.05,19.68S51,40.3,48.21,41.39c-1.8.7-4.35,1.44-9.87,1.44a110.15,110.15,0,0,1-11.7-.75h-.08c-14.28-1.61-18.43-3.75-20.9-5.41S-.5,30.69.75,19.42,4.89,3.73,11,1.54c2.19-.79,5.61-1,9.09-1m0-.5V0c-4.17,0-7.29.36-9.26,1.07C4.25,3.42,1.49,8.21.26,19.36c-1.22,11,2.11,15.7,5.13,17.72S12.82,41,26.5,42.57l.11-.5-.06.5a110.87,110.87,0,0,0,11.79.76c5.49,0,8.08-.71,10-1.48,3.39-1.31,7.67-5.18,8.89-16.16C58.52,14.54,56.88,9.26,51,5.53,46.56,2.71,35.71,1.17,31.25.64H31.2C28.88.39,24.41,0,20.06,0Z"/><path class="cls-1" d="M28.87,68c-12.18,0-13.74-2.37-14.42-5.24-.61-2.55.85-9.63,4-13.83,2.92-3.84,7.76-4.41,10.38-4.41s7.47.57,10.38,4.41c3.19,4.2,4.65,11.28,4,13.83C42.61,65.66,41.05,68,28.87,68Z"/><path class="cls-2" d="M28.87,44.8c1.78,0,7.08.22,10.18,4.32s4.6,11.09,4,13.61-1.74,5.05-14.18,5.05S15.3,65.26,14.69,62.73s.89-9.52,4-13.61S27.1,44.8,28.87,44.8m0-.5c-2.67,0-7.59.59-10.58,4.51-3.23,4.25-4.7,11.45-4.08,14,.71,3,2.3,5.43,14.66,5.43s14-2.46,14.67-5.43c.62-2.59-.86-9.79-4.09-14-3-3.92-7.91-4.51-10.58-4.51Z"/><path class="cls-3" d="M20.41,78.15c-1.58,0-2-.2-2.16-.35a3.54,3.54,0,0,1-.74-1.92,3.58,3.58,0,0,1,.08-2.09c.54-1,5.95-2.27,10.73-3.08a61,61,0,0,1,9-1c1.55,0,2,.19,2.14.34.45.27.71,1.66.75,1.93s.27,1.68-.09,2.11c-.57.94-6,2.25-10.72,3.06a60.77,60.77,0,0,1-9,1Z"/><path class="cls-2" d="M37.34,70a4.16,4.16,0,0,1,2,.28A3.5,3.5,0,0,1,40,72.07,3.4,3.4,0,0,1,40,74c-.45.74-5,2-10.57,3a59.3,59.3,0,0,1-9,1,3.94,3.94,0,0,1-2-.29,5.18,5.18,0,0,1-.62-3.67c.42-.74,5-2,10.57-3a59.28,59.28,0,0,1,9-1m0-.5a61.33,61.33,0,0,0-9.06,1c-1,.18-10,1.73-10.91,3.2a4.06,4.06,0,0,0-.11,2.26A4,4,0,0,0,18.1,78c.24.2.72.39,2.31.39a61.35,61.35,0,0,0,9.05-1c3.68-.63,10.08-2,10.9-3.18A3.86,3.86,0,0,0,40.48,72c-.09-.52-.34-1.75-.86-2.1-.23-.18-.72-.38-2.28-.38Z"/><path class="cls-4" d="M26.2,59.78h-.7a1.22,1.22,0,0,0-.93.85,1.4,1.4,0,0,0,.11.87,1.15,1.15,0,0,0,.81.54h1.33V59h-.61Zm0,1.71h-.55a.43.43,0,0,1-.45-.37.77.77,0,0,1,0-.47.65.65,0,0,1,.42-.32h.55Zm2.33,0H28a.24.24,0,0,1-.21-.16V59.86h-.62v1.63s0,.4.6.54h1.5V59.86h-.7Zm2-1.63c-.72,0-1,.43-1,1.09a1.39,1.39,0,0,0,.16.62.66.66,0,0,0,.31.31,1.31,1.31,0,0,0,.62.16,1.15,1.15,0,0,0,.62-.16,1,1,0,0,0,.39-.54h-.7a.29.29,0,0,1-.31.23.35.35,0,0,1-.31-.15.68.68,0,0,1-.08-.32h1.4V61C31.64,59.86,30.94,59.86,30.55,59.86Zm-.31.86c0-.09,0-.39.39-.39s.35.16.39.39Zm2.41-.47v-.39H32V62h.7v-.7s-.09-.78.55-.78v-.62A.57.57,0,0,0,32.65,60.25Z"/><ellipse class="cls-1" cx="28.58" cy="72.24" rx="10.98" ry="1.3" transform="matrix(0.99, -0.17, 0.17, 0.99, -11.67, 5.79)"/><path class="cls-1" d="M36.41,47.68c-2.3-2.32-6.22-2.45-7.54-2.45s-5.24.13-7.54,2.45-7.17,10.56,7.54,10.56S38.72,50,36.41,47.68Z"/><path class="cls-3" d="M31.09,1.56h.05c1.94.24,5.79.74,9.64,1.54,4.6,1,7.87,2,9.72,3.22,5.51,3.5,7,8.54,5.85,19.27-.54,4.9-1.76,8.77-3.63,11.5A10.18,10.18,0,0,1,48.06,41c-3.13,1.22-7.88,2.14-21.37.67h-.08C13.12,40.12,8.69,38.17,5.91,36.3a10.11,10.11,0,0,1-3.7-4.82c-1.22-3.07-1.57-7.11-1-12C2.38,8.74,5,4.16,11.12,2c2.06-.74,5.49-1.08,10.19-1,3.94.07,7.8.41,9.75.62h0m.1-.43H31.1C27,.7,15.87-.22,11,1.54,4.89,3.73,2,8.14.75,19.42S3.18,35,5.66,36.66s6.62,3.8,20.9,5.41h.08c14.29,1.55,18.8.38,21.57-.69s7.32-4.48,8.57-15.76S56.19,9.42,50.73,6c-4.39-2.79-15.4-4.32-19.54-4.82Z"/><path class="cls-5" d="M53,9.13C47.81,4.85,30.9,3.32,30.9,3.32S14.07,1.11,8.06,4.15s-6.36,10-6.62,13.57-.78,9.36,2.3,12.09,6.34,4.78,23.48,6.69,20.76.62,24.37-1.38,4.37-7.77,4.9-11.3S58.2,13.41,53,9.13Z"/><rect class="cls-4" x="14.83" y="11.58" width="3.47" height="13.88" transform="translate(2.14 -1.71) rotate(6.33)"/><rect class="cls-4" x="39.83" y="14.35" width="3.47" height="13.88" transform="translate(2.6 -4.45) rotate(6.33)"/><path class="cls-3" d="M39.05,49.12C36,45,30.65,44.8,28.87,44.8h0c-1.78,0-7.07.23-10.18,4.32s-4.6,11.09-4,13.61,1.75,5.05,14.18,5.05h0c12.44,0,13.58-2.52,14.18-5.05S42.16,53.21,39.05,49.12Zm3.48,11.06c-.21,2.26-1.3,4.44-13.66,4.44s-13.45-2.18-13.66-4.44,1.24-7.39,3.83-10.8c2.73-3.61,7.33-4.15,9.83-4.15s7.1.54,9.84,4.15C41.3,52.79,42.75,57.92,42.53,60.18Z"/><path class="cls-1" d="M8.32,63.06A4,4,0,0,1,7.74,63,2.22,2.22,0,0,1,6,61.6c-.73-1.72,0-4.39,2.05-7.31,2.63-3.78,5.79-5.82,7.43-5.82a1,1,0,0,1,1,.51c.4.83,0,1.52-.75,3-.53,1-1.25,2.4-2.14,4.52C11.59,61.35,10.21,63.06,8.32,63.06Z"/><path class="cls-2" d="M15.5,48.72a.76.76,0,0,1,.76.37c.58,1.2-.67,2.06-2.89,7.35-2,4.81-3.32,6.37-5,6.37a3.23,3.23,0,0,1-.53,0c-2-.33-2.93-3.44.49-8.34,2.7-3.88,5.77-5.71,7.22-5.71m0-.5h0c-1.75,0-4.93,2-7.63,5.92-2.09,3-2.85,5.75-2.09,7.56A2.52,2.52,0,0,0,7.7,63.26a4.56,4.56,0,0,0,.62.05c2,0,3.45-1.75,5.51-6.68.89-2.1,1.61-3.49,2.13-4.5.81-1.54,1.21-2.31.75-3.25a1.21,1.21,0,0,0-1.21-.66Z"/><path class="cls-3" d="M13.47,54.79c-3,4.92-4.5,6.07-6.43,5.46a1.93,1.93,0,0,1-1-.73c-.23,1.91.57,3,1.75,3.25,2,.33,3.37-1,5.58-6.33C14.6,53.52,15.53,52,16,50.93,15.38,51.82,14.53,53,13.47,54.79Z"/><path class="cls-1" d="M16.4,49.69a1.22,1.22,0,0,0-.14-.6c-.57-1.19-4.57.44-8,5.34-1.92,2.75-2.47,4.93-2.23,6.38a2.27,2.27,0,0,0,2.74-.34C10.1,59.44,12,56,13.3,54,14.18,52.76,15.55,50.86,16.4,49.69Z"/><path class="cls-3" d="M8,62.55c-2-.33-2.92-3.43.49-8.34a21.33,21.33,0,0,1,2.2-2.66,20.8,20.8,0,0,0-2.41,2.88c-3.42,4.9-2.5,8-.49,8.34a2.76,2.76,0,0,0,2.64-1A2.65,2.65,0,0,1,8,62.55Z"/><path class="cls-1" d="M51.15,60.11c-1.6,0-3.23-1.39-6-5.13-1.38-1.84-2.42-3-3.18-3.87-1.13-1.27-1.65-1.86-1.46-2.76.07-.3.35-.81,1.51-.81,1.6,0,4.63,1,7.95,3.91C52.62,53.79,54,56.19,53.71,58a2.23,2.23,0,0,1-1.33,1.79,3,3,0,0,1-1.23.28Z"/><path class="cls-2" d="M42,47.79c1.64,0,4.66,1.12,7.78,3.85,4.51,3.93,4.37,7.16,2.51,8a2.73,2.73,0,0,1-1.13.26c-1.49,0-3.1-1.37-5.83-5-3.44-4.6-4.86-5.13-4.59-6.42.08-.4.54-.62,1.26-.62m0-.5c-1.39,0-1.69.71-1.75,1-.22,1,.36,1.68,1.52,3,.75.85,1.79,2,3.16,3.85,2.85,3.81,4.54,5.23,6.23,5.23a3.32,3.32,0,0,0,1.33-.3,2.49,2.49,0,0,0,1.48-2c.3-1.93-1.11-4.42-3.86-6.82-3.36-2.93-6.47-4-8.11-4Z"/><path class="cls-3" d="M44.82,53.25c4.06,4.06,5.84,4.8,7.57,3.73a1.93,1.93,0,0,0,.8-.94c.68,1.78.18,3.09-.91,3.56-1.86.81-3.52-.18-7-4.77-1.9-2.54-3.18-3.84-3.91-4.71C42.25,50.83,43.37,51.8,44.82,53.25Z"/><path class="cls-1" d="M40.74,49a1.3,1.3,0,0,1,0-.62c.27-1.29,4.54-.69,9,3.24,2.53,2.2,3.59,4.18,3.71,5.64a2.27,2.27,0,0,1-2.74.35c-1.51-.69-4.15-3.56-5.93-5.15C43.64,51.45,41.85,50,40.74,49Z"/><path class="cls-3" d="M52,59.45c1.87-.81,2-4-2.5-8a21.19,21.19,0,0,0-2.78-2,20.13,20.13,0,0,1,3,2.21c4.51,3.93,4.37,7.16,2.51,8a2.73,2.73,0,0,1-2.8-.3A2.64,2.64,0,0,0,52,59.45Z"/><path class="cls-3" d="M48.36,40.09c-2.78,1.08-7.29,2.25-21.57.69H26.7C12.43,39.16,8.28,37,5.81,35.37s-6-5.86-5-16.77c0,.27-.06.54-.1.82C-.5,30.69,3.18,35,5.66,36.66s6.62,3.8,20.9,5.41h.08c14.29,1.55,18.8.38,21.57-.69s7.32-4.48,8.57-15.76c0-.27.06-.54.09-.81C55.54,35.71,51.11,39,48.36,40.09Z"/></g></g></svg>