<svg xmlns="http://www.w3.org/2000/svg" viewBox="0 0 183.42 144.87"><defs><style>.cls-1{fill:#cddbff;}.cls-2{fill:#8ba8ea;}.cls-3{fill:#e6e3ff;}</style></defs><title>资源 10</title><g id="图层_2" data-name="图层 2"><g id="图层_1-2" data-name="图层 1"><ellipse class="cls-1" cx="65.35" cy="127.8" rx="65.35" ry="17.08"/><ellipse class="cls-1" cx="147.78" cy="131.54" rx="35.65" ry="9.31"/><path class="cls-2" d="M66.19,1.82c5.12,4-12.24,40.69-9.11,49.51s13.37-4.55,17.36-2.56S61,75,65.57,82.64s9.72-3.42,13.71,7.4-14.52,29.59-14,40.12H27.77s-11.39-18.5-9.39-23.9,6.83.28,8.68.42,4.12,0,4-5.83-15.51-38-5.12-45c0,0,2.42-1.57,4.69,4.69s4,9.68,5,3.27S29,28.06,41.28,12.49C56.22-6.51,66.19,1.82,66.19,1.82Z"/><path class="cls-3" d="M52.53,19.18c-.79,4.6-1.57,9.19-2.2,13.81-.35,2.3-.66,4.61-1,6.92s-.61,4.61-.88,6.92-.54,4.63-.79,6.94-.51,4.62-.68,6.94-.44,4.63-.59,6.95l-.45,7c-.14,2.32-.2,4.64-.3,7,0,1.16-.11,2.32-.13,3.49l0,3.48L45.48,92c0,1.17,0,2.33,0,3.49l.18,7A183.41,183.41,0,0,0,49,130.16a135.53,135.53,0,0,1-4.86-27.59A232.48,232.48,0,0,1,44,74.51c.54-9.34,1.55-18.65,3-27.89A261,261,0,0,1,52.53,19.18Z"/></g></g></svg>