<svg xmlns="http://www.w3.org/2000/svg" viewBox="0 0 153.79 108.22"><defs><style>.cls-1{fill:#030642;}.cls-2{fill:#e53977;}</style></defs><title>资源 28</title><g id="图层_2" data-name="图层 2"><g id="图层_1-2" data-name="图层 1"><path class="cls-1" d="M36.79,62.88q0,4.78-4.23,4.79H26.92v-9c0-1.13-.75-1.7-2.25-1.7H23.54v9.87h-9V58.93c0-1.31-.75-2-2.26-2h-.84V67.67H1.55V40.32q0-9,8.46-9H28.62q8.18,0,8.17,8.74Zm-35-62H37.64V9.3H1.83Zm8.74,11H29.18q7.05,0,7,6.77v9.87h-33V18.61Q3.24,11.85,10.57,11.84Zm13,27.35H11.42V49.34h2.25L12.83,42H17.9q.57,5.93,1.41,5.92.57,0,1.41-5.92h4.79l-.84,7.33h2.25V43.42C26.92,40.6,25.8,39.19,23.54,39.19ZM21.29,18.33H15.08V22h9.31V20.86C24.39,19.17,23.35,18.33,21.29,18.33ZM69.5,13.82V50.75H59.07v7.33h1.41a1.91,1.91,0,0,0,1.41-.56,1.15,1.15,0,0,0,.56-1.41V53.85h7.61v13H62.73V64a6.05,6.05,0,0,1-5.35,3.1H39.05v-9H49.48V55.83q0-5.09-5.36-5.08H39.05V13.53q0-8.44,7.89-8.45h2.54V0h9.59V5.08h3.1Q69.77,5.08,69.5,13.82Zm-20,27.63V16.92c0-1.69-.66-2.54-2-2.54h-.85V41.45Zm9.59-27.07V41.45h3.1V16.92c0-1.69-.75-2.54-2.26-2.54Z"/><path class="cls-1" d="M121.65,11.56Q106.14,55,85.84,67.67V53a132.38,132.38,0,0,0,23.4-42.3h-13V1.41h28.2q6.76,0,8.74,6.2l20.58,60.06H140.54l-17.2-53.29A6.08,6.08,0,0,0,121.65,11.56Z"/><path class="cls-2" d="M2.9,89.36V104H0V89.36Z"/><path class="cls-2" d="M16.67,95.72V104H13.84V97.34a1.92,1.92,0,0,0-1.91-1.69H10.45V104H7.63V95.65c0-1.7.89-2.55,2.68-2.55h3.74A2.4,2.4,0,0,1,16.67,95.72Z"/><path class="cls-2" d="M27.54,93.1v2.55h-1.9V104H22.81V97.7a1.93,1.93,0,0,0-1.91-2V93.1h1.91V89.36h2.83V93.1Z"/><path class="cls-2" d="M40.47,95.65v4.16H34.53v1.77h5.94V104H34.39c-1.74,0-2.64-.75-2.68-2.12v-6c0-1.79.92-2.71,2.61-2.76h3.46C39.52,93.15,40.42,94,40.47,95.65Zm-5.94,1.83h3.18v-.84c-.09-.8-.68-1.23-1.76-1.28H34.53Z"/><path class="cls-2" d="M54,95.65v9.82a2.48,2.48,0,0,1-2.68,2.75H45.12v-2.54h6V105c-.1-.66-.73-1-1.91-1.06H47.74c-1.7,0-2.57-.75-2.62-2.12V95.79c.05-1.74.9-2.64,2.55-2.69h3.67A2.46,2.46,0,0,1,54,95.65Zm-6,5.93h3.18V96.92c-.1-.8-.71-1.23-1.84-1.27H48Z"/><path class="cls-2" d="M63.7,93.1v2.55H62.57a1,1,0,0,0-1.06,1.06V104H58.68V95.79c0-1.79,1-2.69,2.9-2.69Z"/><path class="cls-2" d="M76.91,95.51V104H75.14l-1.06-2.33v-1.06c0-.66-.45-1-1.34-1H70.9v2.05h3.18l-1,2.33H70.41c-1.56,0-2.33-.66-2.33-2V99.46c0-1.55.75-2.33,2.4-2.33h3.6V95.65H68.15V93.1h6.28A2.25,2.25,0,0,1,76.91,95.51Z"/><path class="cls-2" d="M87.78,93.1v2.55H85.87V104H83.05V97.7a1.93,1.93,0,0,0-1.91-2V93.1h1.91V89.36h2.82V93.1Z"/><path class="cls-2" d="M100.7,95.65v4.16H94.77v1.77h5.93V104H94.63c-1.74,0-2.64-.75-2.68-2.12v-6q.06-2.69,2.61-2.76H98C99.76,93.15,100.66,94,100.7,95.65Zm-5.93,1.83H98v-.84c-.1-.8-.68-1.23-1.77-1.28H94.77Z"/><path class="cls-2" d="M115.74,89.36V104h-2.89V89.36Z"/><path class="cls-2" d="M129.52,95.72V104h-2.83V97.34a1.92,1.92,0,0,0-1.91-1.69H123.3V104h-2.83V95.65c0-1.7.9-2.55,2.69-2.55h3.74A2.4,2.4,0,0,1,129.52,95.72Z"/><path class="cls-2" d="M140.39,93.1v2.55h-1.91V104h-2.82V97.7a1.93,1.93,0,0,0-1.91-2V93.1h1.91V89.36h2.82V93.1Z"/><path class="cls-2" d="M153.46,95.72v5.93c-.05,1.51-.92,2.28-2.62,2.33h-3.67c-1.7,0-2.54-.75-2.54-2.26V95.58c0-1.65.87-2.48,2.61-2.48h3.6A2.4,2.4,0,0,1,153.46,95.72Zm-2.83,5.86V97.06c0-.89-.66-1.37-1.84-1.41h-1.34v5.93Z"/></g></g></svg>