<svg xmlns="http://www.w3.org/2000/svg" xmlns:xlink="http://www.w3.org/1999/xlink" viewBox="0 0 117.08 220.1"><defs><style>.cls-1{fill:none;}.cls-2{fill:#cddbff;}.cls-3{clip-path:url(#clip-path);}.cls-4{fill:#fff;}.cls-5{fill:#808993;}.cls-6{fill:#ccc;}.cls-7{fill:#3c3c77;}.cls-8{fill:#2e85ff;}</style><clipPath id="clip-path"><rect class="cls-1" x="2.67" width="114.41" height="207.34"/></clipPath></defs><title>资源 6</title><g id="图层_2" data-name="图层 2"><g id="图层_1-2" data-name="图层 1"><ellipse class="cls-2" cx="58.35" cy="200.66" rx="58.35" ry="19.44"/><g class="cls-3"><path class="cls-4" d="M37.67,72l49.16,1.58,3,1.94c4.55,2.63,9.83,8.49,10.67,15.91a91.66,91.66,0,0,1,.33,13.07c-.56,18.53,1.78,32.68,1.78,42.77,0,12.35,0,21.4-.93,28-1.12,7.88-3,14.74-6.49,19-7.46,9-25.42,12.47-39.62,12.47s-32.16-3.43-39.61-12.47c-5.35-6.47-8-20-8.24-33.07C7.34,140,12,124,20.82,98.88c3-8.45,7.15-18.21,11.54-22.72A32.53,32.53,0,0,1,37.67,72"/><path class="cls-5" d="M38.86,72l-2.28,5.36s-.77,1.17,1,2.22c.69.4,6.95,2.74,17.33,2.79,16,.09,28.58-3.48,32-5a1.43,1.43,0,0,0,.84-1.76,8.6,8.6,0,0,0-1-2.07"/><path class="cls-4" d="M25.78,86.63s-4.11,3.87-10.26,16.79S4.66,130.71,3.64,136.78s.77,10.81,4.78,11.95"/><path class="cls-4" d="M112.54,49.55c-1.13,10.39-6.5,19-14.86,23.64-10.08,5.6-27.4,3.81-41.1,2.9-14.49-1-27.88-4.59-36.34-13.4a27,27,0,0,1-7.5-15.79,29.42,29.42,0,0,1-.19-4.5A53.86,53.86,0,0,1,13.18,36c2.09-13.62,10.25-24,21.93-29.87A46.82,46.82,0,0,1,40,4.06,59.05,59.05,0,0,1,67.2,1.12c27.57,3.14,48.06,23.53,45.34,48.43"/><path class="cls-6" d="M47.28,122.77l-26-6.19A2.75,2.75,0,0,1,19.42,113l6.37-19.4a2.68,2.68,0,0,1,3-1.88l12.77,2.49,12.9,2.52a2.73,2.73,0,0,1,2,3.51l-6,20.58a2.69,2.69,0,0,1-3.15,2"/><polygon class="cls-7" points="48.33 119.9 21.39 113.62 27.68 94.31 40.73 96.92 54.32 99.64 48.33 119.9"/><path class="cls-5" d="M99.22,101.13c-.68-4.11-2.59-8-5.36-9.5a10.81,10.81,0,0,0-3.51-1.12C84.1,89.59,78,97,76.47,107.57s.78,20.19,8.26,21.12a12.47,12.47,0,0,0,4.74,0c3.58-1.19,7.42-5.87,9.08-13,1.69-7.34,1.23-11.07.67-14.55"/><path class="cls-7" d="M8.13,148.24a22.73,22.73,0,0,0,15.94,14.38c16,3.8,34.55-3,41.51-5.39,13.6-4.73,30.76-12.2,36.74-16.66l.05.84c-5.25,4.44-21.29,11.73-36.22,17.19-22.41,8.19-31.05,7.62-40.63,6.16-10-1.54-16.79-10.62-17.52-14.93Z"/><path class="cls-4" d="M98.22,101c-.72-1-4.1-8.85-10.25-5.77,0,0-4.7,2.67-4.53,10.18.12,6,3.37,7.31,4.65,9.58a46.25,46.25,0,0,1,4.53,11c1.33,5,2.57,15.91,2.48,22.5s-1.65,15.22-.34,19.22c.64,2,3,7.53,10.89,7.13s9.5-8.42,10-10.78c3-13.6-4.27-30.94-6-36.78-4.61-16-10.77-25.24-11.5-26.27"/><path class="cls-6" d="M116.25,153.07h0c-3.7-4.21-5.39-10.42-5.84-12.25A84.71,84.71,0,0,1,109,129.08a53.8,53.8,0,0,0-1.15-7.85q.78,2.25,1.53,4.73c.13,1,.24,2,.31,3.08a84.26,84.26,0,0,0,1.4,11.63,31.45,31.45,0,0,0,5.07,11.21c.05.4.09.79.12,1.19"/><path class="cls-6" d="M92.63,126c.05.21.1.42.16.65A111.27,111.27,0,0,1,95.1,148.5c-.08,6.59-1.65,15.22-.34,19.22a10,10,0,0,0,7,6.78c0,.23-.07.46-.1.68h-.07a10.58,10.58,0,0,1-7.46-7.22c-.9-2.76-.53-7.36-.13-12.23.2-2.44.41-5,.44-7.22a111.21,111.21,0,0,0-2.28-21.61"/><path class="cls-6" d="M102,38.64c-.07,1.23-.55,2.16-1.06,2-.68-.14-.87-1.18-.8-2.41s.56-2.16,1.07-2.06.87,1.18.79,2.42"/><path class="cls-6" d="M103.28,43c-.08,1.21-.56,2.12-1.07,2-.68-.14-.87-1.16-.79-2.37s.55-2.12,1.06-2,.87,1.16.8,2.38"/><path class="cls-6" d="M99.41,38.06c0,1.3-.45,2.29-1,2.21-.68-.12-.93-1.2-.91-2.5s.46-2.29,1-2.21.93,1.19.91,2.5"/><path class="cls-6" d="M97.31,41.45c0,1.3-.56,2.29-1.21,2.18C95.25,43.49,95,42.4,95,41.1s.55-2.28,1.2-2.18,1.16,1.23,1.14,2.53"/><path class="cls-6" d="M98.42,50.14c-.74-.11-1.88.93-3-.11S95,46.9,96,45.71a11.76,11.76,0,0,0,1.93-2.28c.31-.74.68-1.58,1.58-1.45s1.19,1.57,1.38,2.21c.37,1.26,1.07,1.8,1.2,3.2s-.43,2.76-1.14,3.1c-1,.5-1.75-.24-2.52-.35"/><path class="cls-6" d="M97.22,59.63h-.28c-5.68-.24-10-7.81-9.62-16.88a22.19,22.19,0,0,1,3.45-11.44c2.07-3.07,4.75-4.69,7.54-4.58,5.68.24,10,7.81,9.62,16.88a22.19,22.19,0,0,1-3.45,11.44C102.47,58,99.91,59.63,97.22,59.63ZM98,27.41c-2.45,0-4.82,1.51-6.69,4.28A21.57,21.57,0,0,0,88,42.78c-.36,8.69,3.67,15.94,9,16.16,2.54.12,5-1.41,7-4.27a21.66,21.66,0,0,0,3.33-11.09h0c.36-8.69-3.67-15.94-9-16.16Z"/><path class="cls-7" d="M83.76,23.17c-1,3.8-7.9,4-9.91,5.95-1.47,2,.79,2.94.42,5.42-.73,3.25-3.36,5.81-9.19,9.71-6,4-16.4,9.6-25.73,6.2C32.68,48,33.17,40.64,27.89,40c-6.44-.06-4.76,9.32-11.77,9a5.33,5.33,0,0,1-3.38-2.18,29.42,29.42,0,0,1-.19-4.5A53.86,53.86,0,0,1,13.18,36c2.09-13.62,10.25-24,21.93-29.87A46.82,46.82,0,0,1,40,4.06a47.3,47.3,0,0,1,20.23.52C74.41,8.39,85.36,16.86,83.76,23.17"/><polygon class="cls-8" points="58.76 37.79 53.3 37.19 56.39 14.91 61.91 15.09 58.76 37.79"/><polygon class="cls-8" points="25.69 35 21.11 34.82 25.57 14.38 30.19 14.31 25.69 35"/><path class="cls-7" d="M101.48,176.28c-.11.57-.14,1.07-.26,1.63-9.37,8.77-26.35,14.54-45.88,14.54s-36.59-5.84-46-14.61c-.12-.56-.2-1.14-.32-1.71C18.82,184.5,35.86,190,55.34,190s36.38-5.39,46.14-13.76"/><path class="cls-7" d="M25.78,86.68c-.1.25-3.56,8.29-5,12.25-7,20-11.4,34.17-12.72,49.74h0l-.13,0-.15-.05-.26-.11-.09,0,.06-.74c1.38-14.82,5.55-28.74,12.68-49,1.3-3.71,2.63-7.1,4-10.11a20.36,20.36,0,0,1,1.63-1.91"/><path class="cls-7" d="M59.6.69a68.08,68.08,0,0,1,7.6.43c27.57,3.14,48.06,23.53,45.34,48.43-1.13,10.39-6.5,19-14.86,23.64a27.41,27.41,0,0,1-7.33,2.65c4.41,2.77,9.3,8.45,10.11,15.57a90.21,90.21,0,0,1,.33,13.07c0,.24,0,.49,0,.73a103.32,103.32,0,0,1,7.08,16.17l0-.15q.78,2.25,1.53,4.73s0,.08,0,.12l.36,1.21c1.21,4.17,5.27,14.21,6.39,24.56l0,0c.05.4.09.79.12,1.19h0v0a36.68,36.68,0,0,1-.55,11c-.53,2.36-2.05,10.38-10,10.78l-.79,0a12.92,12.92,0,0,1-3.13-.37h0c0,.17,0,.35-.07.52l0,.21c0,.35-.11.7-.16,1.05h0s0,.07,0,.11l-.09.57c0,.31-.09.62-.16.95h0c-1.16,6.74-3,12.55-6.07,16.27-7.46,9-25.42,12.47-39.62,12.47s-32.16-3.43-39.61-12.47c-3-3.65-5.18-9.54-6.54-16.34h0c0-.17-.06-.34-.1-.51s-.11-.59-.16-.89l-.06-.32h0a98,98,0,0,1-1.38-15c-.06-3.91.05-7.63.32-11.27H8v-.08c0-.16,0-.31,0-.47l.05-.61h0l-.13,0-.15-.05-.26-.11-.09,0v0c-3.32-1.59-4.74-6-3.8-11.58,1-6.07,5.72-20.44,11.88-33.36S25.78,86.63,25.78,86.63h0c2-4.3,4.28-8.11,6.58-10.47a29.63,29.63,0,0,1,4.45-3.61,39.7,39.7,0,0,1-16.57-9.86,27,27,0,0,1-7.5-15.79,29.42,29.42,0,0,1-.19-4.5A53.86,53.86,0,0,1,13.18,36c2.09-13.62,10.25-24,21.93-29.87A46.82,46.82,0,0,1,40,4.06,56.24,56.24,0,0,1,59.6.69m0-.69h0A56.8,56.8,0,0,0,39.71,3.42,46.91,46.91,0,0,0,34.8,5.55c-12.33,6.22-20.25,17-22.3,30.38a53.48,53.48,0,0,0-.63,6.44A30.48,30.48,0,0,0,12.06,47a27.55,27.55,0,0,0,7.69,16.19,39.7,39.7,0,0,0,15.56,9.59,29.9,29.9,0,0,0-3.44,2.92c-2.13,2.19-4.36,5.73-6.65,10.54-.67.68-4.62,4.93-10.32,16.9C8.9,115.72,4,130.35,3,136.67c-1,5.64.49,10.22,3.77,12.09v.05l.41.21.12,0,.12.06v.1l0,.19a2.46,2.46,0,0,1,0,.28v.17h0c-.27,3.69-.38,7.37-.31,11.25a99.09,99.09,0,0,0,1.1,13.37L8,174.43l.37,1.83,0,.19,0,.11c.06.3.11.6.17.9l0,.11c0,.14,0,.28.08.42v0c1.47,7.36,3.77,13.1,6.67,16.61,3.53,4.28,9.46,7.59,17.62,9.85a87.26,87.26,0,0,0,22.52,2.87,87.21,87.21,0,0,0,22.52-2.87c8.17-2.26,14.1-5.57,17.63-9.85,2.86-3.46,4.89-8.87,6.21-16.55v0c.07-.33.12-.64.16-.94v-.06c0-.17.06-.37.09-.56v-.08l.21-1.07a14.24,14.24,0,0,0,2.49.22l.82,0c8.28-.42,10-8.46,10.62-11.1l0-.22a37.24,37.24,0,0,0,.58-10.92l0,0,0-.27c0-.45-.07-.84-.12-1.2l0-.2,0,0c-.9-8-3.49-15.74-5.22-20.86-.48-1.45-.9-2.7-1.17-3.62-.11-.4-.23-.78-.34-1.17v-.17c-.49-1.62-1-3.22-1.54-4.75h0a104.33,104.33,0,0,0-7-16V105c0-.15,0-.3,0-.45a91.46,91.46,0,0,0-.33-13.16C100.36,84.51,96,79.11,92,76.14a26.7,26.7,0,0,0,6-2.35c8.51-4.73,14-13.54,15.21-24.16a40.67,40.67,0,0,0-11.5-32.93C93.18,7.77,81,2,67.28.44A69,69,0,0,0,59.6,0"/></g></g></g></svg>