<svg xmlns="http://www.w3.org/2000/svg" xmlns:xlink="http://www.w3.org/1999/xlink" viewBox="0 0 164.46 426.75"><defs><style>.cls-1{fill:#fed0d1;}.cls-2{fill:#b6bfd3;}.cls-3{fill:#e53977;}.cls-4{fill:url(#未命名的渐变_26);}.cls-5{fill:#fa5185;}.cls-6{fill:url(#未命名的渐变_22);}.cls-7{fill:#002732;}.cls-8{fill:#07dbff;}.cls-9{fill:#095884;}.cls-10{fill:#0d71b1;}.cls-11{fill:url(#未命名的渐变_11);}.cls-12{fill:url(#未命名的渐变_15);}.cls-13{fill:#0e50af;}.cls-14{fill:url(#未命名的渐变_22-2);}.cls-15{fill:#030642;}.cls-16{fill:url(#未命名的渐变_43);}.cls-17{fill:url(#未命名的渐变_43-2);}</style><linearGradient id="未命名的渐变_26" x1="50.16" y1="297.46" x2="106.31" y2="297.46" gradientUnits="userSpaceOnUse"><stop offset="0" stop-color="#e53977"/><stop offset="1" stop-color="#cc3185"/></linearGradient><linearGradient id="未命名的渐变_22" x1="133.41" y1="308.01" x2="133.41" y2="230.18" gradientUnits="userSpaceOnUse"><stop offset="0" stop-color="#fa5185"/><stop offset="1" stop-color="#cc3185"/></linearGradient><linearGradient id="未命名的渐变_11" x1="111.69" y1="236.65" x2="111.69" y2="134.94" gradientUnits="userSpaceOnUse"><stop offset="0" stop-color="#0d71b1"/><stop offset="1" stop-color="#165cb1"/></linearGradient><linearGradient id="未命名的渐变_15" x1="132.61" y1="82.91" x2="154.08" y2="82.91" gradientUnits="userSpaceOnUse"><stop offset="0" stop-color="#095884"/><stop offset="1" stop-color="#084763"/></linearGradient><linearGradient id="未命名的渐变_22-2" x1="120.34" y1="314.66" x2="120.34" y2="291.59" xlink:href="#未命名的渐变_22"/><linearGradient id="未命名的渐变_43" x1="62.12" y1="380.35" x2="92.41" y2="362.86" gradientUnits="userSpaceOnUse"><stop offset="0" stop-color="#b6bfd3"/><stop offset="0.61" stop-color="#9db1d3"/><stop offset="1" stop-color="#93abd3"/></linearGradient><linearGradient id="未命名的渐变_43-2" x1="-0.64" y1="412.81" x2="29.66" y2="395.32" xlink:href="#未命名的渐变_43"/></defs><title>资源 7</title><g id="图层_2" data-name="图层 2"><g id="图层_1-2" data-name="图层 1"><path class="cls-1" d="M20.72,367.69a50.81,50.81,0,0,0-4.22,3.58l5.92,17.59L35,379.53Z"/><path class="cls-2" d="M17.33,369.52l7.09,19.73A24.92,24.92,0,0,0,17.77,404c-.77,9-3.38,20.16-10.36,22.78L0,376Z"/><path class="cls-3" d="M70.26,225.23s-4.69,105.06-54.17,140.7l19.7,16.65s64.13-51.92,70.52-108l-4.39-31.26L82,220.77Z"/><path class="cls-4" d="M106.31,274.54l-3.79-27L80.92,225.4l-6,2.68s6.55,29,12.85,47.37c8.55,24.88-10.74,65.4-37.65,94.06C69.46,350.61,101.86,313.59,106.31,274.54Z"/><polygon class="cls-1" points="85.97 334.01 77.98 339.79 84.77 356.57 97.63 345.89 85.97 334.01"/><path class="cls-5" d="M78,224.29s-2.35,28.37,47.84,67.3L82.92,334l13.44,14.77s55.27-27,64.42-40.8-11.26-44.09-17.59-53-14.77-20.64-14.77-20.64L82,220.77Z"/><path class="cls-2" d="M80.08,337.06l7.09,19.73a24.92,24.92,0,0,0-6.65,14.72c-.76,9.05-3.38,20.16-10.35,22.78l-7.42-50.8Z"/><path class="cls-6" d="M143.19,255c-6.33-8.91-14.77-20.64-14.77-20.64l-14.3-4.19-10.4,1.7s55,40.33,57.06,76.13C169.93,294.17,149.52,263.92,143.19,255Z"/><rect class="cls-7" x="116.57" y="1" width="44.24" height="44.24" rx="4.36"/><path class="cls-8" d="M156.45,2a3.37,3.37,0,0,1,3.36,3.36V40.88a3.37,3.37,0,0,1-3.36,3.36H120.93a3.36,3.36,0,0,1-3.36-3.36V5.36A3.36,3.36,0,0,1,120.93,2h35.52m0-2H120.93a5.36,5.36,0,0,0-5.36,5.36V40.88a5.36,5.36,0,0,0,5.36,5.36h35.52a5.36,5.36,0,0,0,5.36-5.36V5.36A5.36,5.36,0,0,0,156.45,0Z"/><path class="cls-1" d="M104.71,74.57s4.14,6.88,8.05,7.82c3.53.85-.63,3,0,4.54s4.94,9.09,1.5,11.29-10.5,3.09-9.35,11.3l.26,1.67-17.3,2.92v-9.27L90.42,87l10.42-14Z"/><path class="cls-1" d="M138.74,72.33S149.29,55,150.3,49.66s-.46-6.26.08-12.51,1.88-5.86,2.5-5.86,2.82,2.58,2.9,4.45,5.39-7.5,5.94-10.24c0,0,5.16,10.56,1.33,16.5s-4.22,6.33-4.77,12-2.82,21.34-6.18,25.1Z"/><path class="cls-9" d="M112.12,110.32s-20.93-.88-27.26,3.34S86,125.85,86,125.85Z"/><path class="cls-10" d="M133.93,81.12s-20.17,31.31-41.28,36.23-26.85,7.74-33.88,20.87S46.69,160,45.17,165.9s.58,11.13,5.74,13.48,17.47-5.86,17.47-5.86,2.35,44.2-6.09,55.93a149.71,149.71,0,0,1,24.86-1.68c13.68.22,31.72,14.48,49.07,6.4,0,0-9.28,0-11.34-9.44s-6.85-67-2.43-83.89c3.7-14.19,15.35-17.39,24.49-48.35l1.1-3.83Z"/><path class="cls-9" d="M138.06,70.89c-1.89.53-7,8.73-5,11.53s13.13,10.13,16.27,8.8c2.93-1.25,5.66-8.6,4.46-12.07S141.79,69.82,138.06,70.89Z"/><path class="cls-11" d="M124.88,224.73c-2.06-9.45-6.85-67-2.43-83.89a29.38,29.38,0,0,1,2.23-5.9c-2.46,4.32-31,54.89-37.51,92.82h0c13.67.26,31.68,14.47,49,6.4C136.22,234.17,126.94,234.17,124.88,224.73Z"/><path class="cls-12" d="M153.79,79.15c-.48-1.38-2.5-3.15-5-4.71,0,.65-.09,9.39-4.44,10-4.5.67-9.62-3-11.62-5a3.88,3.88,0,0,0,.31,3c2,2.8,13.13,10.13,16.26,8.8C152.26,90,155,82.62,153.79,79.15Z"/><path class="cls-13" d="M63.22,176.52h0c2.94-1.52,5.16-3,5.16-3s.24-13-1.23-18.3C67.15,155.22,65.36,173,63.22,176.52Z"/><path class="cls-14" d="M125.84,291.59l-23.32,23.07h0c19-13.19,35.65-17.93,35.65-17.93C132.29,295.81,125.84,291.59,125.84,291.59Z"/><path class="cls-15" d="M92.88,64.55s2.07,4.85-2.09,8-5.09,3.79-5.09,3.79S92.47,71.07,92.88,64.55Z"/><path class="cls-15" d="M80.84,80.55s-4.37,5.19-2.07,11.63C78.77,92.18,74.39,84.49,80.84,80.55Z"/><path class="cls-15" d="M107.37,69.37c-1-3.47-3.55-7.59-6.89-9.05.81.38,4.44,2.47,6,9.26a16.78,16.78,0,0,0-6.15-8.76,5.08,5.08,0,0,0-4.74-.56,8.65,8.65,0,0,0-1.2.63c-3.17,2,2.64,6.89-2.39,11.3S79,79.43,78.78,88s6.26,12.53,6,16.67.16,6.09,2.42,6S88.92,108,94,107.31s9.27-5.2,7.33-9.18-6.18-4.23-6.53-8.73,4.32-1.41,5.38,1,2.56.26,1.28-1.59-3.58-6.09-1.9-8S108.87,74.75,107.37,69.37Z"/><path class="cls-16" d="M76.07,368.64a20.52,20.52,0,0,1-7.52,14.6h0l1.62,11.05c7-2.62,9.59-13.74,10.35-22.78a24.92,24.92,0,0,1,6.65-14.72l-2.87-8h0S76.79,358.91,76.07,368.64Z"/><path class="cls-17" d="M13.32,401.1A20.52,20.52,0,0,1,5.8,415.7h0l1.61,11.05C14.39,424.13,17,413,17.77,404a24.92,24.92,0,0,1,6.65-14.72l-2.87-8h0S14,391.37,13.32,401.1Z"/><path class="cls-15" d="M66.69,342l-1,.36,7.33,50.12c.3-.27.6-.55.88-.85Z"/><path class="cls-15" d="M3.91,374.51l-1,.35L10.28,425c.3-.26.6-.54.89-.84Z"/><path class="cls-8" d="M142,13.57l6.14,6.13-1.83,7.46a1.51,1.51,0,0,1-1.09,1.12l-13.39,3.63,5.9-5.9a2,2,0,0,0,1.39-.58A2,2,0,0,0,137.7,22a2,2,0,0,0-1.42.59A2,2,0,0,0,135.7,24l-5.9,5.9,3.63-13.39a1.51,1.51,0,0,1,1.12-1.09L142,13.57m.31-1.11-8,2a2.54,2.54,0,0,0-1.85,1.8L128.8,29.73A5,5,0,0,1,127.6,32h0a.62.62,0,0,0,0,.89.63.63,0,0,0,.44.19.67.67,0,0,0,.45-.19.65.65,0,0,0,.18-.46l8.09-8.09A1,1,0,0,1,137.7,23a1,1,0,0,1,.72.3,1,1,0,0,1,0,1.43,1,1,0,0,1-.7.29,1.27,1.27,0,0,1-.34-.05l-8.09,8.09h0a.63.63,0,1,0,.44,1.07h0a5,5,0,0,1,2.27-1.2l13.5-3.66a2.54,2.54,0,0,0,1.8-1.85l2-8-6.93-6.93Z"/><path class="cls-8" d="M146.09,10.11l5.52,5.52L150,17.25l-5.53-5.53,1.62-1.61m0-1a.9.9,0,0,0-.64.27l-2.39,2.39L150,18.66l2.39-2.39a.91.91,0,0,0,0-1.28l-5.66-5.66a.9.9,0,0,0-.64-.27Z"/></g></g></svg>