<svg xmlns="http://www.w3.org/2000/svg" xmlns:xlink="http://www.w3.org/1999/xlink" viewBox="0 0 186.06 332.43"><defs><style>.cls-1{fill:#4d74c1;}.cls-2{fill:#f6f9ff;}.cls-3{fill:#fed0d1;}.cls-4{fill:#000b43;}.cls-5{fill:#303d8b;}.cls-6{fill:url(#未命名的渐变_39);}.cls-7{fill:#e97700;}.cls-8{fill:#fff;}.cls-9{fill:#d16502;}.cls-10{fill:#030642;}.cls-11{fill:url(#未命名的渐变_10);}</style><linearGradient id="未命名的渐变_39" x1="66.61" y1="246.48" x2="145.96" y2="222.04" gradientUnits="userSpaceOnUse"><stop offset="0" stop-color="#303d8b"/><stop offset="1" stop-color="#212f8b"/></linearGradient><linearGradient id="未命名的渐变_10" x1="128.99" y1="116.89" x2="184.85" y2="99.69" gradientUnits="userSpaceOnUse"><stop offset="0" stop-color="#d16502"/><stop offset="1" stop-color="#bd5502"/></linearGradient></defs><title>资源 9</title><g id="图层_2" data-name="图层 2"><g id="图层_1-2" data-name="图层 1"><rect class="cls-1" width="75.44" height="46.24" rx="5.36"/><rect class="cls-2" x="8.12" y="8.3" width="45.11" height="5.14" rx="2.57"/><rect class="cls-2" x="8.12" y="20.55" width="59.36" height="5.14" rx="2.57"/><rect class="cls-2" x="8.12" y="32.8" width="59.36" height="5.14" rx="2.57"/><polygon class="cls-3" points="73.97 288.91 73.97 301.7 62.06 304.71 62.06 289.41 73.97 288.91"/><path class="cls-3" d="M104.67,241.27c.94.16,10.27,5.58,10.27,5.58l-3.87,11.43-13.16-7.62Z"/><path class="cls-4" d="M90.33,193.28l21.9-9.2,14.13-24.46S117.29,144,116.4,144s-9.91,3.09-10.79,3.31-17.94,7.6-17.94,7.6S48.31,177.69,47,192.67s10.13,36.15,51.78,63.47c0,0,7.72-4.41,8.82-16.75,0,0-22-21.59-28-42.31Z"/><path class="cls-5" d="M75.68,296.27l-15.32,6.31a19.68,19.68,0,0,1-5.1,11.7c-4.9,5.24-10,12.67-7.86,18.15l33.7-22.59Z"/><path class="cls-4" d="M112.58,243.45l-4.11,16.05a19.67,19.67,0,0,1,6.33,11.09c1.27,7.06,4.16,15.61,9.84,17.15l2.06-40.52Z"/><path class="cls-5" d="M141.31,188.05s-28,27.76-43.64,51.34-21.15,52.45-21.15,52.45-10.36,3.31-17.19,0c0,0,0-34.16,10.35-63.24s46.72-65.68,46.72-65.68Z"/><path class="cls-6" d="M76.52,291.84S82,263,97.67,239.39s43.64-51.34,43.64-51.34l-9.87-10s-54.6,48.07-58.59,114.63A33.38,33.38,0,0,0,76.52,291.84Z"/><path class="cls-3" d="M80.85,36.59s3.46-10,1.88-12.25c-1.88-2.73-11-5.65-10.83-2.35a12.19,12.19,0,0,0,3,4.42v5.3l-.43,6.18Z"/><path class="cls-7" d="M165,61.18s21.54-3.5,21.07,29.13-11.74,20.67-16.44,54-28.88,51.89-28.88,51.89-6.81-26.06-31.46-27.47L117,148.08,99.41,163.57a13.57,13.57,0,0,1-8.93-5.63c-3.75-5.17-7-4.93-7-4.93s20.9-7.52,35.92-41.8l6.11-13.38-13.38-6.11S75.55,90,73.74,37l8.73-2.64S93,66.49,112.87,70.4,133.7,62.49,165,61.18Z"/><polygon class="cls-8" points="127.56 121.44 122.83 136.1 129.9 124.65 127.56 121.44"/><path class="cls-3" d="M120.29,86.63s1.66-10.55-1.06-12-2.49.35-3.8.12-1.21-4.13-4-3.19-8.47,5.08-6.81,8.64S114.25,90,114.25,90Z"/><path class="cls-3" d="M139.46,38.61S137.88,57.14,144,59.1s6.34.56,6.34,3.44a17.72,17.72,0,0,1-1.63,6.31l2.68,3.57,8.54-1s5.41-4.55,5.48-4.82,1.91-3.31,1.91-3.31l-4.22-13.48s5.77-1.39,5.58-5.12-1.58-3.91-1.58-3.91l-3.26-1.12-5.21-4.56-10.9-4.75H144.3l-3.82,2a28,28,0,0,1-1.2,3C139,35.63,139.46,38.61,139.46,38.61Z"/><path class="cls-8" d="M167.92,62.06s-8.66,8.88-14,8-3.59-6.14-3.59-6.14-8.65,5.78-16.25,39.84l9.21,2.53,22.35-37.47Z"/><path class="cls-9" d="M174.43,73.59a7.77,7.77,0,0,0-6.79,3.86c-4.74,8-17.87,28.57-26.38,25.92-10.54-3.28-20.56-18.84-20.56-18.84L112.23,89s6,41.53,27,43.95c17,2,34.59-17.88,40.66-25.47a14.91,14.91,0,0,0,3-6.46C184.41,92.89,186.8,73.82,174.43,73.59Z"/><path class="cls-10" d="M136.08,33.21h0c-.88-4.2-.82-10.68,5.61-11.54,5.45-.73,9,7.35,16.4,8s9.31,2.14,9,11.08c0,0-4.66-.28-5.12,2.79s-1.12,4.75-1.86,2.52.09-2.8-1.31-3.82a2.57,2.57,0,0,1-.81-2.15h0c0-.21,0-.44,0-.67-.1-.63-.41-1.47-1.41-1.27-1.58.3-3.22,2.91-5.28,3s-11.42,4.92-16,.43S136.89,37.08,136.08,33.21Z"/><path class="cls-11" d="M179.84,107.45a14.91,14.91,0,0,0,3-6.46c1-5.33,2.43-15.4-.26-21.73,0,0-10.2,33.19-26,42.83a34.09,34.09,0,0,1-30.88,2.36c3.59,4.53,8,7.84,13.5,8.47C156.14,134.88,173.77,115,179.84,107.45Z"/></g></g></svg>