<?xml version="1.0" encoding="UTF-8"?>
<svg width="12px" height="16px" viewBox="0 0 12 16" version="1.1" xmlns="http://www.w3.org/2000/svg" xmlns:xlink="http://www.w3.org/1999/xlink">
    <!-- Generator: Sketch 52.6 (67491) - http://www.bohemiancoding.com/sketch -->
    <title>zip</title>
    <desc>Created with Sketch.</desc>
    <g id="Data-Entry-数据输入--2" stroke="none" stroke-width="1" fill="none" fill-rule="evenodd">
        <g id="upload-上传" transform="translate(-40.000000, -1673.000000)">
            <g id="zip" transform="translate(39.000000, 1673.000000)">
                <g transform="translate(1.000000, 0.000000)">
                    <path d="M1.33333333,0 L8,0 L12,5.09090909 L12,14.5454545 C12,15.3490909 11.4033333,16 10.6666667,16 L1.33333333,16 C0.596666667,16 0,15.3490909 0,14.5454545 L0,1.45454545 C0,0.650909091 0.596666667,0 1.33333333,0" id="Fill-1" fill="#D7DBE2"></path>
                    <path d="M12,5.09090909 L9.33333333,5.09090909 C8.59666667,5.09090909 8,4.44 8,3.63636364 L8,0 L8.66666667,0 L12,4.36363636 L12,5.09090909 Z" id="Fill-3" fill="#EBEFF8"></path>
                    <path d="M2.95454545,5.86363636 L2.68181818,5.86363636 L2.68181818,5.59090909 L2.95454545,5.59090909 L2.95454545,5.86363636 Z M2.68181818,4.40909091 L2.68181818,4.13636364 L2.95454545,4.13636364 L2.95454545,4.40909091 L2.68181818,4.40909091 Z M2.68181818,2.95454545 L2.68181818,2.68181818 L2.95454545,2.68181818 L2.95454545,2.95454545 L2.68181818,2.95454545 Z M2.68181818,1.5 L2.68181818,1.22727273 L2.95454545,1.22727273 L2.95454545,1.5 L2.68181818,1.5 Z M2.81818182,8.01820766 L2.55401155,8.0718314 C1.94511863,8.19543014 1.5,8.73396501 1.5,9.36363636 C1.5,10.0916481 2.0901701,10.6818182 2.81818182,10.6818182 C3.54619353,10.6818182 4.13636364,10.0916481 4.13636364,9.36363636 C4.13636364,8.73396501 3.691245,8.19543014 3.08235209,8.0718314 L2.81818182,8.01820766 Z" id="Combined-Shape-Copy-5" stroke="#FFFFFF"></path>
                </g>
            </g>
        </g>
    </g>
</svg>