<?xml version="1.0" encoding="UTF-8"?>
<svg width="14px" height="11px" viewBox="0 0 14 11" version="1.1" xmlns="http://www.w3.org/2000/svg" xmlns:xlink="http://www.w3.org/1999/xlink">
    <!-- Generator: Sketch 52.6 (67491) - http://www.bohemiancoding.com/sketch -->
    <title>合并形状</title>
    <desc>Created with Sketch.</desc>
    <g id="Data-Entry-数据输入--2" stroke="none" stroke-width="1" fill="none" fill-rule="evenodd">
        <g id="upload-上传" transform="translate(-455.000000, -2760.000000)" fill="#FFFFFF" fill-rule="nonzero">
            <path d="M467.454115,2765.25026 C466.604269,2763.01216 464.445162,2761.5 462.000004,2761.5 C459.554846,2761.5 457.395739,2763.01216 456.545894,2765.25025 C456.484702,2765.41141 456.484702,2765.58859 456.545893,2765.74974 C457.395739,2767.98784 459.554846,2769.5 462.000004,2769.5 C464.445162,2769.5 466.604269,2767.98784 467.454114,2765.74975 C467.515306,2765.58859 467.515306,2765.41141 467.454114,2765.25025 L467.921551,2765.07277 L467.454115,2765.25026 Z M468.388988,2764.89528 C468.537014,2765.28512 468.537014,2765.71488 468.388986,2766.10473 C467.392683,2768.72852 464.86332,2770.5 462.000004,2770.5 C459.136687,2770.5 456.607325,2768.72852 455.61102,2766.10472 C455.462993,2765.71488 455.462993,2765.28512 455.611022,2764.89527 C456.607325,2762.27148 459.136687,2760.5 462.000004,2760.5 C464.86332,2760.5 467.392683,2762.27148 468.388986,2764.89527 L467.921551,2765.07277 L468.388988,2764.89528 Z M462.000004,2763.5 L462.000004,2764 C461.171584,2764 460.500004,2764.67158 460.500004,2765.5 C460.500004,2766.32842 461.171584,2767 462.000004,2767 C462.828424,2767 463.500004,2766.32842 463.500004,2765.5 C463.500004,2764.67158 462.828424,2764 462.000004,2764 L462.000004,2763.5 Z M462.000004,2763.5 L462.000004,2763 C463.380709,2763 464.500004,2764.1193 464.500004,2765.5 C464.500004,2766.8807 463.380709,2768 462.000004,2768 C460.619299,2768 459.500004,2766.8807 459.500004,2765.5 C459.500004,2764.1193 460.619299,2763 462.000004,2763 L462.000004,2763.5 Z" id="合并形状"></path>
        </g>
    </g>
</svg>