<?xml version="1.0" encoding="UTF-8"?>
<svg width="12px" height="16px" viewBox="0 0 12 16" version="1.1" xmlns="http://www.w3.org/2000/svg" xmlns:xlink="http://www.w3.org/1999/xlink">
    <!-- Generator: Sketch 52.6 (67491) - http://www.bohemiancoding.com/sketch -->
    <title>excel</title>
    <desc>Created with Sketch.</desc>
    <g id="Data-Entry-数据输入--2" stroke="none" stroke-width="1" fill="none" fill-rule="evenodd">
        <g id="upload-上传" transform="translate(-96.000000, -1673.000000)">
            <g id="excel" transform="translate(95.000000, 1673.000000)">
                <g transform="translate(1.000000, 0.000000)">
                    <path d="M1.33333333,0 L8,0 L12,5.09090909 L12,14.5454545 C12,15.3490909 11.4033333,16 10.6666667,16 L1.33333333,16 C0.596666667,16 0,15.3490909 0,14.5454545 L0,1.45454545 C0,0.650909091 0.596666667,0 1.33333333,0" id="Fill-1" fill="#8ABA28"></path>
                    <path d="M12,5.09090909 L9.33333333,5.09090909 C8.59666667,5.09090909 8,4.44 8,3.63636364 L8,0 L8.66666667,0 L12,4.36363636 L12,5.09090909 Z" id="Fill-3" fill="#BCDC7B"></path>
                    <polygon id="X-Copy-2" fill="#FEFEFE" points="9 12.9176471 7.76470588 12.9176471 5.5 9.99411765 3.23529412 12.9176471 2 12.9176471 4.88235294 9.21176471 2.37058824 6 3.60588235 6 5.5 8.42941176 7.39411765 6 8.62941176 6 6.11764706 9.21176471"></polygon>
                </g>
            </g>
        </g>
    </g>
</svg>