<?xml version="1.0" encoding="UTF-8"?>
<svg width="26px" height="30px" viewBox="0 0 26 30" version="1.1" xmlns="http://www.w3.org/2000/svg" xmlns:xlink="http://www.w3.org/1999/xlink">
    <!-- Generator: Sketch 52.6 (67491) - http://www.bohemiancoding.com/sketch -->
    <title>合并形状</title>
    <desc>Created with Sketch.</desc>
    <g id="页面-1" stroke="none" stroke-width="1" fill="none" fill-rule="evenodd">
        <g id="02-1个人信息表预览" transform="translate(-1588.000000, -1726.000000)" fill="#FFFFFF" fill-rule="nonzero">
            <g id="分组-13" transform="translate(991.000000, 1113.000000)">
                <g id="分组" transform="translate(258.000000, 603.000000)">
                    <path d="M351.739726,16.9863014 C346.065568,16.9863014 341.465753,21.5861156 341.465753,27.260274 C341.465753,32.9344324 346.065568,37.5342466 351.739726,37.5342466 C357.413884,37.5342466 362.013699,32.9344324 362.013699,27.260274 C362.013699,26.579375 362.565676,26.0273973 363.246575,26.0273973 C363.927474,26.0273973 364.479452,26.579375 364.479452,27.260274 C364.479452,34.2962304 358.775682,40 351.739726,40 C344.70377,40 339,34.2962304 339,27.260274 C339,20.2243176 344.70377,14.5205479 351.739726,14.5205479 L351.739726,10 L362.424658,15.7534247 L351.739726,21.5068493 L351.739726,16.9863014 Z" id="合并形状"></path>
                </g>
            </g>
        </g>
    </g>
</svg>