<?xml version="1.0" encoding="UTF-8"?>
<svg width="28px" height="28px" viewBox="0 0 28 28" version="1.1" xmlns="http://www.w3.org/2000/svg" xmlns:xlink="http://www.w3.org/1999/xlink">
    <!-- Generator: Sketch 52.6 (67491) - http://www.bohemiancoding.com/sketch -->
    <title>全屏</title>
    <desc>Created with Sketch.</desc>
    <g id="页面-1" stroke="none" stroke-width="1" fill="none" fill-rule="evenodd">
        <g id="02-1个人信息表预览" transform="translate(-1284.000000, -1727.000000)">
            <g id="分组-13" transform="translate(991.000000, 1113.000000)">
                <g id="分组" transform="translate(258.000000, 603.000000)">
                    <g id="全屏" transform="translate(34.000000, 10.000000)">
                        <rect id="Rectangle-30" x="0" y="0" width="30" height="30"></rect>
                        <path d="M28.75,2.49996094 L28.75,2.5 L28.75,11.25 C28.75,11.9403516 28.1903516,12.5 27.5,12.5 C26.8096484,12.5 26.25,11.9403516 26.25,11.25 L26.25,5.51777344 L17.5,14.2677734 C17.0118359,14.7558984 16.2203906,14.7558984 15.7322266,14.2677734 C15.2441016,13.7796094 15.2441016,12.9881641 15.7322266,12.5 L24.4822266,3.75 L18.75,3.75 C18.0596484,3.75 17.5,3.19035156 17.5,2.5 C17.5,1.80964844 18.0596484,1.25 18.75,1.25 L27.5,1.25 L27.5000391,1.25 C27.520625,1.25 27.5412109,1.25054688 27.5617969,1.2515625 C27.5716016,1.25203125 27.5812891,1.25296875 27.5910156,1.25367188 C27.6016016,1.25441406 27.6121484,1.25503906 27.6226953,1.25605469 C27.6349219,1.25726563 27.6469922,1.25890625 27.6591016,1.26042969 C27.6670313,1.26144531 27.675,1.26226563 27.6829297,1.26347656 C27.6961328,1.26539063 27.7091406,1.26773438 27.7221875,1.27007813 C27.7290234,1.27132813 27.7359375,1.27242188 27.7427734,1.27375 C27.7560938,1.27636719 27.7692188,1.279375 27.7823438,1.28242188 C27.7889844,1.28394531 27.7956641,1.28539063 27.8023047,1.28703125 C27.8150391,1.29019531 27.8276953,1.29371094 27.8402734,1.29726563 C27.8474219,1.29929688 27.8545313,1.30121094 27.8616016,1.30332031 C27.8733203,1.306875 27.8849219,1.31070312 27.8964844,1.31457031 C27.9044531,1.31726562 27.9124609,1.31984375 27.9204297,1.32265625 C27.9308203,1.32640625 27.9410938,1.33039062 27.9513672,1.334375 C27.9603906,1.33785156 27.9694531,1.34128906 27.9783984,1.34503906 C27.9873828,1.34875 27.99625,1.35269531 28.0051172,1.35660156 C28.0151563,1.36105469 28.0252344,1.36550781 28.0351953,1.37023437 C28.0428125,1.37382813 28.0503125,1.37765625 28.0578516,1.38140625 C28.0687891,1.386875 28.0796875,1.39234375 28.0905078,1.398125 C28.0969922,1.40164063 28.1033594,1.4053125 28.1098047,1.40890625 C28.12125,1.4153125 28.1326563,1.42171875 28.1439063,1.42851563 C28.1497656,1.43207031 28.1555078,1.43574219 28.1612891,1.439375 C28.1727344,1.44652344 28.1841797,1.45371094 28.1954297,1.46128906 C28.2012109,1.46515625 28.206875,1.46921875 28.2125781,1.47320313 C28.2234375,1.48078125 28.2342969,1.48832031 28.245,1.49625 C28.2514453,1.50105469 28.2576563,1.50609375 28.2640234,1.51101563 C28.2736719,1.51847656 28.2833594,1.52585938 28.2928516,1.53367188 C28.3010938,1.54046875 28.3090625,1.54753906 28.3171484,1.55453125 C28.3244531,1.56085937 28.3318359,1.56695313 28.3390234,1.57347656 C28.3696094,1.60117188 28.3988281,1.63039063 28.4265234,1.66097656 C28.4330469,1.66816406 28.4391406,1.67554688 28.4454688,1.68285156 C28.4524609,1.6909375 28.4595313,1.69890625 28.4663281,1.70714844 C28.4741406,1.71664063 28.4815234,1.72632813 28.4889844,1.73597656 C28.4939063,1.74230469 28.4989453,1.74855469 28.50375,1.755 C28.5116797,1.76570312 28.5192188,1.7765625 28.5267969,1.78742188 C28.5307813,1.793125 28.5348438,1.79878906 28.5387109,1.80457031 C28.5462891,1.81582031 28.5534766,1.82726563 28.560625,1.83871094 C28.5642578,1.84449219 28.5679297,1.85023437 28.5714844,1.85609375 C28.5782813,1.86734375 28.5846875,1.87875 28.5910938,1.89019531 C28.5946875,1.89664062 28.5983594,1.90300781 28.601875,1.90949219 C28.6076563,1.9203125 28.613125,1.93121094 28.6185938,1.94214844 C28.6223438,1.9496875 28.6261719,1.95714844 28.6297656,1.96480469 C28.6344922,1.97476562 28.6389453,1.98480469 28.6433984,1.99488281 C28.6473047,2.00375 28.65125,2.01261719 28.6549609,2.02160156 C28.6587109,2.03054687 28.6621484,2.03960938 28.665625,2.04863281 C28.6696094,2.05890625 28.6735938,2.06917969 28.6773438,2.07957031 C28.6801563,2.08753906 28.6827344,2.09550781 28.6854297,2.10351563 C28.6892969,2.11507813 28.693125,2.12667969 28.6966797,2.13839844 C28.6987891,2.14546875 28.7007031,2.15257812 28.7027344,2.15972656 C28.7062891,2.17230469 28.7098047,2.18496094 28.7129688,2.19769531 C28.7146094,2.20433594 28.7160547,2.21101562 28.7175781,2.21765625 C28.720625,2.23078125 28.7236328,2.24390625 28.72625,2.25722656 C28.7275781,2.2640625 28.7286719,2.27097656 28.7299219,2.2778125 C28.7322656,2.29085938 28.7346094,2.30386719 28.7365234,2.31707031 C28.7377344,2.325 28.7385547,2.33296875 28.7395703,2.34089844 C28.7410938,2.35300781 28.7427344,2.36507813 28.7439453,2.37730469 C28.7449609,2.38785156 28.7455859,2.39839844 28.7463281,2.40898438 C28.7470313,2.41871094 28.7479688,2.42839844 28.7484375,2.43820313 C28.7494531,2.45878906 28.75,2.479375 28.75,2.49996094 Z M1.25,27.5000391 L1.25,27.5 L1.25,18.75 C1.25,18.0596484 1.80964844,17.5 2.5,17.5 C3.19035156,17.5 3.75,18.0596484 3.75,18.75 L3.75,24.4822266 L12.5,15.7322266 C12.9881641,15.2441016 13.7796094,15.2441016 14.2677734,15.7322266 C14.7558984,16.2203906 14.7558984,17.0118359 14.2677734,17.5 L5.51777344,26.25 L11.25,26.25 C11.9403516,26.25 12.5,26.8096484 12.5,27.5 C12.5,28.1903516 11.9403516,28.75 11.25,28.75 L2.5,28.75 L2.49996094,28.75 C2.479375,28.75 2.45878906,28.7494531 2.43820313,28.7484375 C2.42839844,28.7479687 2.41871094,28.7470312 2.40898438,28.7463281 C2.39839844,28.7455859 2.38785156,28.7449609 2.37730469,28.7439453 C2.36507813,28.7427344 2.35300781,28.7410937 2.34089844,28.7395703 C2.33296875,28.7385547 2.325,28.7377344 2.31707031,28.7365234 C2.30386719,28.7346094 2.29085938,28.7322656 2.2778125,28.7299219 C2.27097656,28.7286719 2.2640625,28.7275781 2.25722656,28.72625 C2.24390625,28.7236328 2.23078125,28.720625 2.21765625,28.7175781 C2.21101563,28.7160547 2.20433594,28.7146094 2.19769531,28.7129687 C2.18496094,28.7098047 2.17230469,28.7062891 2.15972656,28.7027344 C2.15257813,28.7007031 2.14546875,28.6987891 2.13839844,28.6966797 C2.12667969,28.693125 2.11507813,28.6892969 2.10351563,28.6854297 C2.09554688,28.6827344 2.08753906,28.6801562 2.07957031,28.6773437 C2.06917969,28.6735937 2.05890625,28.6696094 2.04863281,28.665625 C2.03960938,28.6621484 2.03054688,28.6587109 2.02160156,28.6549609 C2.01261719,28.65125 2.00375,28.6473047 1.99488281,28.6433984 C1.98484375,28.6389453 1.97476563,28.6344922 1.96480469,28.6297656 C1.9571875,28.6261719 1.9496875,28.6223437 1.94214844,28.6185937 C1.93121094,28.613125 1.9203125,28.6076562 1.90949219,28.601875 C1.90300781,28.5983594 1.89664063,28.5946875 1.89019531,28.5910937 C1.87875,28.5846875 1.86734375,28.5782812 1.85609375,28.5714844 C1.85023438,28.5679297 1.84449219,28.5642578 1.83871094,28.560625 C1.82726563,28.5534766 1.81582031,28.5462891 1.80457031,28.5387109 C1.79878906,28.5348437 1.793125,28.5307812 1.78742188,28.5267969 C1.7765625,28.5192187 1.76570313,28.5116797 1.755,28.50375 C1.74855469,28.4989453 1.74234375,28.4939062 1.73597656,28.4889844 C1.72632813,28.4815234 1.71664063,28.4741406 1.70714844,28.4663281 C1.69890625,28.4595312 1.6909375,28.4524609 1.68285156,28.4454687 C1.67554688,28.4391406 1.66816406,28.4330469 1.66097656,28.4265234 C1.63039063,28.3988281 1.60117188,28.3696094 1.57347656,28.3390234 C1.56695313,28.3318359 1.56085938,28.3244531 1.55453125,28.3171484 C1.54753906,28.3090625 1.54046875,28.3010937 1.53367188,28.2928516 C1.52585938,28.2833594 1.51847656,28.2736719 1.51101563,28.2640234 C1.50609375,28.2576953 1.50105469,28.2514453 1.49625,28.245 C1.48832031,28.2342969 1.48078125,28.2234375 1.47320313,28.2125781 C1.46921875,28.206875 1.46515625,28.2012109 1.46128906,28.1954297 C1.45371094,28.1841797 1.44652344,28.1727344 1.439375,28.1612891 C1.43574219,28.1555078 1.43207031,28.1497656 1.42851563,28.1439062 C1.42171875,28.1326562 1.4153125,28.12125 1.40890625,28.1098047 C1.4053125,28.1033594 1.40164063,28.0969922 1.398125,28.0905078 C1.39234375,28.0796875 1.386875,28.0687891 1.38140625,28.0578516 C1.37765625,28.0503125 1.37382813,28.0428516 1.37023438,28.0351953 C1.36550781,28.0252344 1.36105469,28.0151953 1.35660156,28.0051172 C1.35269531,27.99625 1.34875,27.9873828 1.34503906,27.9783984 C1.34128906,27.9694531 1.33785156,27.9603906 1.334375,27.9513672 C1.33039063,27.9410937 1.32640625,27.9308203 1.32265625,27.9204297 C1.31984375,27.9124609 1.31726563,27.9044922 1.31457031,27.8964844 C1.31070313,27.8849219 1.306875,27.8733203 1.30332031,27.8616016 C1.30121094,27.8545312 1.29929688,27.8474219 1.29726563,27.8402734 C1.29371094,27.8276953 1.29019531,27.8150391 1.28703125,27.8023047 C1.28539063,27.7956641 1.28394531,27.7889844 1.28242188,27.7823437 C1.279375,27.7692187 1.27636719,27.7560937 1.27375,27.7427734 C1.27242188,27.7359375 1.27132813,27.7290234 1.27007813,27.7221875 C1.26773438,27.7091406 1.26539063,27.6961328 1.26347656,27.6829297 C1.26226563,27.675 1.26144531,27.6670312 1.26042969,27.6591016 C1.25890625,27.6469922 1.25726563,27.6349219 1.25605469,27.6226953 C1.25503906,27.6121484 1.25441406,27.6016016 1.25367188,27.5910156 C1.25296875,27.5812891 1.25203125,27.5716016 1.2515625,27.5617969 C1.25054688,27.5412109 1.25,27.520625 1.25,27.5000391 Z" id="Combined-Shape" fill="#FFFFFF"></path>
                    </g>
                </g>
            </g>
        </g>
    </g>
</svg>