<svg xmlns="http://www.w3.org/2000/svg" xmlns:xlink="http://www.w3.org/1999/xlink" viewBox="0 0 331.2 298.56"><defs><style>.cls-1{fill:#5779b5;}.cls-2{fill:url(#未命名的渐变_36);}.cls-3{fill:#fff;}.cls-4{fill:#fed0d1;}.cls-5{opacity:0.55;fill:url(#未命名的渐变_74);}.cls-6{fill:url(#未命名的渐变_55);}.cls-7{fill:#000b43;}.cls-8{fill:#b6bfd3;}.cls-9{fill:#e53977;}.cls-10{fill:#303d8b;}.cls-11{fill:none;stroke:#1d2249;stroke-miterlimit:10;stroke-width:2px;}.cls-12{opacity:0.6;fill:url(#未命名的渐变_28);}.cls-13{fill:url(#未命名的渐变_39);}.cls-14{fill:url(#未命名的渐变_50);}.cls-15{fill:url(#未命名的渐变_50-2);}.cls-16{fill:#030642;}.cls-17{fill:url(#未命名的渐变_63);}</style><linearGradient id="未命名的渐变_36" x1="50.22" y1="109.41" x2="123.32" y2="67.21" gradientUnits="userSpaceOnUse"><stop offset="0" stop-color="blue"/><stop offset="0.07" stop-color="#1806f1" stop-opacity="0.88"/><stop offset="0.28" stop-color="#5715cb" stop-opacity="0.57"/><stop offset="0.46" stop-color="#8921ad" stop-opacity="0.33"/><stop offset="0.62" stop-color="#ad2a97" stop-opacity="0.15"/><stop offset="0.74" stop-color="#c42f8a" stop-opacity="0.04"/><stop offset="0.81" stop-color="#cc3185" stop-opacity="0"/></linearGradient><linearGradient id="未命名的渐变_74" x1="197.8" y1="37.48" x2="254.28" y2="37.48" gradientUnits="userSpaceOnUse"><stop offset="0" stop-color="#fed0d1"/><stop offset="1" stop-color="#e7aeaf"/></linearGradient><linearGradient id="未命名的渐变_55" x1="219.93" y1="133.88" x2="131.34" y2="133.88" gradientUnits="userSpaceOnUse"><stop offset="0" stop-color="#e5baba"/><stop offset="1" stop-color="#fed0d1"/></linearGradient><linearGradient id="未命名的渐变_28" x1="284.31" y1="179.01" x2="284.31" y2="47.03" gradientUnits="userSpaceOnUse"><stop offset="0" stop-color="#e53977"/><stop offset="1" stop-color="#a72a77"/></linearGradient><linearGradient id="未命名的渐变_39" x1="201.46" y1="258.19" x2="201.46" y2="160.99" gradientUnits="userSpaceOnUse"><stop offset="0" stop-color="#303d8b"/><stop offset="1" stop-color="#212f8b"/></linearGradient><linearGradient id="未命名的渐变_50" x1="214.38" y1="279.52" x2="174.3" y2="279.52" gradientUnits="userSpaceOnUse"><stop offset="0" stop-color="#818797"/><stop offset="1" stop-color="#b6bfd3"/></linearGradient><linearGradient id="未命名的渐变_50-2" x1="135.43" y1="276.41" x2="86.98" y2="276.41" xlink:href="#未命名的渐变_50"/><linearGradient id="未命名的渐变_63" x1="189.31" y1="20.3" x2="236.98" y2="20.3" gradientUnits="userSpaceOnUse"><stop offset="0" stop-color="#1e227b"/><stop offset="1" stop-color="#000032"/></linearGradient></defs><title>资源 3</title><g id="图层_2" data-name="图层 2"><g id="图层_1-2" data-name="图层 1"><rect class="cls-1" x="17.14" y="212.76" width="111.46" height="3.48" transform="translate(287.37 141.63) rotate(90)"/><path class="cls-1" d="M45.89,272.67h54a0,0,0,0,1,0,0v.79A4.84,4.84,0,0,1,95,278.29H50.73a4.84,4.84,0,0,1-4.84-4.84v-.79A0,0,0,0,1,45.89,272.67Z" transform="translate(145.74 550.96) rotate(180)"/><rect class="cls-1" y="141.02" width="145.74" height="3.48"/><path class="cls-1" d="M45.89,146.49h54a0,0,0,0,1,0,0v1.43a8.76,8.76,0,0,1-8.76,8.76H54.66a8.76,8.76,0,0,1-8.76-8.76v-1.43a0,0,0,0,1,0,0Z"/><rect class="cls-1" x="232.16" y="253.47" width="52.03" height="3.48" transform="translate(513.39 -2.97) rotate(90)"/><path class="cls-1" d="M231.21,283.66h54a0,0,0,0,1,0,0v.79a4.84,4.84,0,0,1-4.84,4.84H236a4.84,4.84,0,0,1-4.84-4.84v-.79a0,0,0,0,1,0,0Z" transform="translate(516.36 572.94) rotate(180)"/><path class="cls-1" d="M231.21,216.9h54a0,0,0,0,1,0,0v1.43a8.76,8.76,0,0,1-8.76,8.76H240a8.76,8.76,0,0,1-8.76-8.76V216.9A0,0,0,0,1,231.21,216.9Z"/><path class="cls-1" d="M254.19,213.53c-3.33,0-6.56-.05-9.64-.09-2.85-.05-5.57-.09-8.13-.09H212v-4h24.41c2.58,0,5.32,0,8.19.09,30.8.48,73,1.12,76.12-45.43,3.49-52.37,6.45-94.06,6.48-94.47l4,.28c0,.42-3,42.09-6.48,94.46C321.7,209.55,284,213.53,254.19,213.53Z"/><polygon class="cls-2" points="34 75.59 62.78 133.14 137.88 112.53 98.99 27.53 34 75.59"/><path class="cls-3" d="M67,94.76l8.79,5.59-5.06,2.37L62.08,97.2l1.26-10.15,5.07-2.37Z"/><path class="cls-3" d="M81,71.72l4.58-2.14-1.44,31.1-4.7,2.2Z"/><path class="cls-3" d="M95.4,72,104,77.42l-1.22,10.27-5.06,2.38L99,79.74,90.34,74.4Z"/><path class="cls-4" d="M197.8,31.33l4.08,20.83,5-.56s3.79,7,8.79,6.85S222.15,55,222.15,55s12.89-1.1,13.49,12l17.27-4.17,4.77-12.66s-18.77-.14-25.62-9.6l-1.34-2.46.75-6.11-5.21-10-23.83-3.58Z"/><path class="cls-5" d="M247.51,56.07l6.77-1.89-.91-4.27c-6-.64-16.53-2.71-21.31-9.3l-1.34-2.46.75-6.11-5.21-10-21.19-3.18a11.86,11.86,0,0,0-1.5.23c-.31.09-.86.21-1.49.34L197.8,31.33l.83,4.24s4.5.3,5.05-4.8,6.77.44,9.1,1.22,7,1,7.44,3.22.44-2.43,2.55-3.1,7,.88,7.21,5.32S233,52.52,247.51,56.07Z"/><path class="cls-4" d="M204.83,110.83s-1.89,6.83-13.19,12.24-73.47-13.18-93.72,11.78h16s11.3-7.07,24.49-2.36,56.67,28.57,78.49-.2l4.39-13.46Z"/><path class="cls-6" d="M215,121.51s-8.06,19.53-34,18.62-32.82-9.07-49.66-9.16h0a27.69,27.69,0,0,1,7.09,1.52c13.18,4.71,56.67,28.57,78.49-.2l3-9.24Z"/><polygon class="cls-4" points="191.17 255.2 194.68 269.12 206.92 264.87 202.16 249.52 191.17 255.2"/><polygon class="cls-4" points="136.03 259.32 130.9 272.24 118.44 269.12 123.38 255.38 136.03 259.32"/><path class="cls-7" d="M228.88,152.1l19-5.85,35.73,2.92L303.51,179s-20.74,36.37-66.35,25.06-81.76,17-99.42,60.8l-18.26-7s15.91-72.65,59.7-86.78,49.7-19,49.7-19"/><path class="cls-8" d="M209.48,260.48l-17.72,5.74A22.21,22.21,0,0,1,185,278.9c-5.95,5.45-12.34,13.34-10.38,19.66l39.73-22.41Z"/><path class="cls-8" d="M135.43,267.93l-18.37-3.06A22.12,22.12,0,0,1,105.25,273c-7.79,2.11-17.1,6.16-18.27,12.67l45.58-1.58Z"/><path class="cls-9" d="M244.91,57.38c-3.71,2.68-9.72,2-15.59,7.25S207.1,96.87,200.1,110.87L219,135l13.66-11.93s-3.55,19.7-3.81,29a63.07,63.07,0,0,1,43.31,15.3c20,17.37,39.93,10.11,39.93,10.11S335.62,89,253.39,47a4.88,4.88,0,0,0-4.65,3.87A13.55,13.55,0,0,1,244.91,57.38Z"/><path class="cls-10" d="M229.3,146.25s-36.65-9.72-50.94,3.44c-19.6,18.06,3.06,98.38,10.95,109.88l16.76-4.6,1.26-66.64a80,80,0,0,1,.08-14.76L208.64,161l12.65-4.68,7.59-4.21Z"/><polyline class="cls-11" points="28.49 70.97 60.98 135.94 141.29 135.94"/><path class="cls-12" d="M292.88,178.08a38,38,0,0,0,19.24-.57S335.62,89,253.39,47C253.39,47,299,77,292.88,178.08Z"/><path class="cls-13" d="M194.33,258.19,206.07,255l1.26-66.64a80,80,0,0,1,.08-14.76L208.64,161S193.23,195.07,194.33,258.19Z"/><path class="cls-14" d="M209.48,260.48,204.76,262h0s4.37,9.76,0,13.27-30.06,19.85-30.42,20.08a8.38,8.38,0,0,0,.31,3.2l39.73-22.41Z"/><path class="cls-15" d="M117.73,279.89c-12.59,1.29-28.43,1.7-28.76,1.7a9.13,9.13,0,0,0-2,4.1l45.58-1.58,2.87-16.18-4.78-.79h0S130.46,278.59,117.73,279.89Z"/><path class="cls-16" d="M193.59,2.56a11.43,11.43,0,0,0-3.5,13.36c1.38,3.23,3.68,5.07,2.39,8.66s-4.42,4.52-1.75,8.2,9.12,1.11,9.67-2.67.28-6.45,2.58-6.73,4.24,2.12,6.64,3.5,4.7,2.68,7,1.94,2.95,1.38,3.59,2.85c0,0,1.75-3.68,4.79-3.77s7,5.06,4.7,7.74.74,6.72,5.53,4.14c0,0-5.07-.92-3.41-4.14S237,33,237,27.25s-3.23-5.06-3.5-8.66,2.76-7-2-11S222,7.26,216.8,6.89,202.89-5,193.59,2.56Z"/><path class="cls-17" d="M237,27.25c0-5.71-3.23-5.06-3.5-8.66s2.76-7-2-11S222,7.26,216.8,6.89,202.89-5,193.59,2.56a11.37,11.37,0,0,0-4.28,7.61s6.24-5.39,12.42-3.41,10.43,7.94,19.58,8.12,12.37,11.63,8.41,16.46h0c.8,1.48,1,3.13,0,4.3-2.3,2.67.74,6.72,5.53,4.14,0,0-5.07-.92-3.41-4.14S237,33,237,27.25Z"/></g></g></svg>