<svg xmlns="http://www.w3.org/2000/svg" viewBox="0 0 798 544.93"><defs><style>.cls-1{fill:#f6f9ff;}.cls-2{opacity:0.25;}.cls-3{fill:#bdd1ff;}.cls-4{fill:#a5beff;}.cls-5{opacity:0.84;}.cls-6{fill:#8ba8ea;}.cls-7{opacity:0.58;}.cls-8{fill:#cddbff;}.cls-10,.cls-9{fill:none;stroke-miterlimit:10;stroke-width:2px;}.cls-9{stroke:#7699d6;}.cls-10{stroke:#a4bef7;}.cls-11{fill:#c1d1f7;}.cls-12{fill:#7181a5;}.cls-13{fill:#fff;}.cls-14{opacity:0.46;}</style></defs><title>资源 4</title><g id="图层_2" data-name="图层 2"><g id="图层_1-2" data-name="图层 1"><path class="cls-1" d="M57.53,65.59C93.23,4.11,211.29,16.41,353.17,46.84s182.65,62.8,273.64-16.67S826.25,34.92,791.27,204s-94.45,130.55-77,260.12-137.19,51.5-268,77.23-85-96.5-281-37.29S-21,359.35,35.34,284.38,12.91,142.43,57.53,65.59Z"/><g class="cls-2"><path class="cls-3" d="M284.35,308.34s-34.69,3.88-17.13,45.34,55.72,79,73.7,82.57,4.9-90.18-25.84-109Z"/><path class="cls-4" d="M315.08,327.21l-30.73-18.87L344,435.77C357.14,428.06,343.84,344.85,315.08,327.21Z"/></g><g class="cls-5"><path class="cls-4" d="M380,86.17s-34.62-4.51-27.46,40,35.26,90,51.87,97.76,26.27-86.4.93-112Z"/><path class="cls-6" d="M405.33,111.83,380,86.17l27.52,138C422.1,219.8,429,135.83,405.33,111.83Z"/><g class="cls-7"><path class="cls-3" d="M345.35,118s-34.62-4.51-27.46,40,35.26,90,51.86,97.76,26.28-86.4.94-112Z"/><path class="cls-4" d="M370.69,143.61,345.35,118l27.52,138C387.46,251.58,394.4,167.61,370.69,143.61Z"/></g><path class="cls-8" d="M386.54,402.13s-4.42-34.48,18.27-46.56,34.77-12.37,53.92-35.06,34.77,5.89,25.93,18.86,10.31,17.38-1.77,29.76-34.18,7.36-43.9,17.68S416.22,422.29,386.54,402.13Z"/><path class="cls-4" d="M364.47,270.71A48.81,48.81,0,0,1,358,258.14a292.29,292.29,0,0,1-12.3,37.72,276.41,276.41,0,0,0,10.79-42.65c-3.47-13.1-3-27-2.26-35.38,1.08-12.41,1.62-25.9-8.63-39.39-8.63-11.35-22.61-12-32.29-29.95-3.64,25.82-11.42,41.74-11.42,41.74,6.3-15.28,6.32-39.76,5.15-58.09-9-27.85-20.89-46.25-31-55.14-17.52-15.33-58.28-20.5-67.45,11.87s20.6,77.66,36.36,95.52a112.07,112.07,0,0,1,17.47,26.29c16.72,16.12,39.8,35.82,58.48,42.3,0,0-26.46-6.4-53-27.64a85.32,85.32,0,0,1,3,27.91c-1.62,27.43-2.69,52.71,21.51,66.69s28.51,26.36,34.78,40.48,32.43,22.48,32.43,22.48C399.34,337.54,376.34,286.89,364.47,270.71Z"/><path class="cls-6" d="M567.89,98.58c-7-14.47-13.49-6.47-24.82-25.36s-29.48-14.8-48-2.16c-13.41,9.13-28.63,10.12-43.26,15.56-4.35,24.94-12.47,71.85-5.38,111.15,0,0-11.35-27.33.66-109.22-11.34,5.13-22.17,13.83-31.34,32.16C393.61,165,412,243.73,385,283.12s-8.1,91.18-8.1,91.18c50.18-3.77,34.54-36.15,75.54-55,37.16-17.12,37.11-38.22,40.38-55.68-44.26,28.89-79.67,24.65-79.67,24.65,35-4.33,66.48-25.22,84.37-39.46,6-12.39,15.43-20.61,21.29-34.19,8.86-20.54-11.35-51.21,18.32-68.83C568.43,127.17,574.85,113,567.89,98.58Z"/><path class="cls-9" d="M236.62,100.06S364.08,261.13,361.27,422.9"/><path class="cls-10" d="M530.72,89.54s-123.1,127.77-165.5,333.35"/><path class="cls-10" d="M449.88,362.31s-51.55,15.36-78.45,60.58"/><path class="cls-8" d="M399.78,439.25V426.77a7.39,7.39,0,0,0-7.39-7.39H340.67a7.39,7.39,0,0,0-7.4,7.39v12.48Z"/><path class="cls-8" d="M333.27,442.7v34.07a7.39,7.39,0,0,0,7.4,7.39h51.72a7.39,7.39,0,0,0,7.39-7.39V442.7Z"/><path class="cls-4" d="M481,209.7s67.27,132.59,60.76,244.24H531.47S542.42,387.64,481,209.7Z"/><path class="cls-3" d="M512.16,102.36s21.89,234.91,19.06,339.89C531.22,442.25,487.68,186.16,512.16,102.36Z"/><path class="cls-4" d="M518.08,443.51S475.44,306.2,486.26,301s51.79,113.77,49,143.74S518.08,443.51,518.08,443.51Z"/><path class="cls-11" d="M567.47,423.66s13.89-29.9,33.19-32c0,0-15.36,1.17-31.81,36.48Z"/><path class="cls-4" d="M569.12,251.59S547,403.18,549.82,442.25h9.52s5.54-145.46,14-188.77Z"/><path class="cls-8" d="M565.82,442.25s25.69-64,18.18-88.47c0,0-24.45,35.43-31.67,91Z"/><path class="cls-4" d="M475.91,187.57c9.64,9.69,32.92-9,54.59,17.15s12.73,53.46,4.72,54.41-24-46.73-41-34.43,23.54,18.42,28.71,40.07-23.06,31.08-29.65,25.43-13.19-32-23.54-25.9,9.76,18.36,12.65,24.95-7.47,21.19-23,19.31.94-38.14-14.59-34.84,8.94,29.52-2.83,36.89-60.26,22.15-70.14,12.27-8.52-14.9-7.37-20c2.66-11.77,9.12-15.66,4.88-19.43s-17.16-14.14,6.26-38c24.65-25.13,27.3,5.91,36.24,4S387.4,221,403.41,208.75c13.91-10.63,22.6-20.24,39.54,1.42,10.71,13.67,17,3.29,8.48-3.77s-29.54-26.11-11.3-34.19C470.26,158.85,463.26,174.86,475.91,187.57Z"/><path class="cls-12" d="M487.13,203.54c-4.75,3.79-9.47,7.59-14.11,11.52q-3.51,2.9-7,5.86t-6.89,5.93q-3.45,3-6.83,6c-2.26,2-4.55,4-6.76,6.09l-6.69,6.15-6.57,6.28c-2.22,2.07-4.32,4.26-6.48,6.38L422.62,261l-3.14,3.28c-2.08,2.2-4.21,4.35-6.25,6.59l-6.07,6.76c-1,1.11-2,2.28-3,3.45l-2.9,3.49L398.38,288l-2.74,3.62-2.77,3.61-1.38,1.81c-.45.61-.85,1.25-1.28,1.88q-2.52,3.78-5.1,7.54A199.52,199.52,0,0,1,406,276.59a353.11,353.11,0,0,1,25-26.64c8.75-8.46,17.87-16.52,27.23-24.28S477.15,210.47,487.13,203.54Z"/><path class="cls-3" d="M601.84,196.51c-12.39,1.67-10.59-20.94-30.84-22.12S521.1,193,528.16,207.81s26.37-4.94,37.66,10.36-5.65,16.71-14.83,16.71-35.3-5.18-34.13,9.18,6.36,40,17.42,40.25,26.6-24.48,37-22.83,12.94,15.77,6.82,21.18-32.24,6.83-37.19,16.95,17.19,40,25.19,40,16-15.07,22.6-14.13,12.24,7.77,6.59,12.48-17.66,2.59-17.19,12.71,31.78,32.95,38.84,32,10.59-10.36,13.89-8.94,6.35,5.41,3.06,7.53-7.53,8.94-2.35,11.53,23.46,8.32,39.78-29.34,7.53-43-11-43-7.85-14.12.31-12.55,14.35,11,21.14,8.16,8.68-23.54,8.68-31.7.31-23.54-18.2-16-33,3.77-32.33-6.27,10-12.56,23.85-9.73,26,4.08,26.68-6.28-1.26-45.19-13.18-43.94-18.52,26.05-29.82,11.62,24.48-16,27.94-21-7.54-14.85-22-18.41-29.82-2.93-35.78,4S611.17,195.26,601.84,196.51Z"/><path class="cls-13" d="M600.66,203.54c6.64,12.09,11.55,25.07,15.86,38.17a381.24,381.24,0,0,1,10.33,40.08c1.15,6.81,2.49,13.58,3.33,20.44.45,3.42,1,6.83,1.37,10.25s.68,6.87,1,10.3l.48,5.16.28,5.16.57,10.33c.11,1.72.11,3.44.13,5.17l0,5.17c0,3.44.06,6.89.06,10.33-.48-6.88-.68-13.76-1.21-20.62L632,333.2l-.42-5.14-.61-5.12c-.41-3.42-.81-6.83-1.18-10.25s-1-6.8-1.46-10.2c-.89-6.82-2.29-13.55-3.48-20.32q-3.95-20.22-9.84-40c-1-3.29-1.95-6.59-3.08-9.83l-1.64-4.89-1.77-4.84C606.21,216.13,603.64,209.75,600.66,203.54Z"/><path class="cls-8" d="M591.76,461.27V448.8a7.4,7.4,0,0,0-7.4-7.4H500a7.4,7.4,0,0,0-7.4,7.4v12.47Z"/><path class="cls-8" d="M492.6,464.73v34.06a7.4,7.4,0,0,0,7.4,7.4h84.36a7.4,7.4,0,0,0,7.4-7.4V464.73Z"/></g><g class="cls-14"><path class="cls-3" d="M124.11,202.73s-51.85,21.05-6.76,77.41,120.24,97.69,149.54,95.43S235.33,234.3,179.72,218.51Z"/><path class="cls-4" d="M179.72,218.51l-55.61-15.78L271.46,373.49C288.37,355.9,231.75,233.28,179.72,218.51Z"/><path class="cls-3" d="M118.9,360.94s-18,39.86,37.9,47.44,120.7-9.55,136.06-26.63-94-62.91-134-41.86Z"/><path class="cls-4" d="M158.87,339.89l-40,21.05,175.42,17.18C294.41,359,196.27,320.19,158.87,339.89Z"/></g></g></g></svg>